0
SECTION
2
HEADER
9
$INSUNITS
70
4
9
$ACADVER
1
AC1014
9
$HANDSEED
5
FFFF
0
ENDSEC
0
SECTION
2
TABLES
0
TABLE
2
VPORT
5
8
100
AcDbSymbolTable
0
ENDTAB
0
TABLE
2
LTYPE
5
5
100
AcDbSymbolTable
0
LTYPE
5
14
100
AcDbSymbolTableRecord
100
AcDbLinetypeTableRecord
2
BYBLOCK
70
0
0
LTYPE
5
15
100
AcDbSymbolTableRecord
100
AcDbLinetypeTableRecord
2
BYLAYER
70
0
0
ENDTAB
0
TABLE
2
LAYER
5
2
100
AcDbSymbolTable
70
2
0
LAYER
5
50
100
AcDbSymbolTableRecord
100
AcDbLayerTableRecord
2
0
70
0
6
CONTINUOUS
0
ENDTAB
0
TABLE
2
STYLE
5
3
100
AcDbSymbolTable
70
1
0
STYLE
5
11
100
AcDbSymbolTableRecord
100
AcDbTextStyleTableRecord
2
STANDARD
70
0
0
ENDTAB
0
TABLE
2
VIEW
5
6
100
AcDbSymbolTable
70
0
0
ENDTAB
0
TABLE
2
UCS
5
7
100
AcDbSymbolTable
70
0
0
ENDTAB
0
TABLE
2
APPID
5
9
100
AcDbSymbolTable
70
2
0
APPID
5
12
100
AcDbSymbolTableRecord
100
AcDbRegAppTableRecord
2
ACAD
70
0
0
ENDTAB
0
TABLE
2
DIMSTYLE
5
A
100
AcDbSymbolTable
70
1
0
ENDTAB
0
TABLE
2
BLOCK_RECORD
5
1
100
AcDbSymbolTable
70
1
0
BLOCK_RECORD
5
1F
100
AcDbSymbolTableRecord
100
AcDbBlockTableRecord
2
*MODEL_SPACE
0
BLOCK_RECORD
5
1B
100
AcDbSymbolTableRecord
100
AcDbBlockTableRecord
2
*PAPER_SPACE
0
ENDTAB
0
ENDSEC
0
SECTION
2
BLOCKS
0
BLOCK
5
20
100
AcDbEntity
100
AcDbBlockBegin
2
*MODEL_SPACE
0
ENDBLK
5
21
100
AcDbEntity
100
AcDbBlockEnd
0
BLOCK
5
1C
100
AcDbEntity
100
AcDbBlockBegin
2
*PAPER_SPACE
0
ENDBLK
5
1D
100
AcDbEntity
100
AcDbBlockEnd
0
ENDSEC
0
SECTION
2
ENTITIES
0
LWPOLYLINE
5
100
100
AcDbEntity
8
OUTER_PROFILES
100
AcDbPolyline
90
6
70
1
43
0.0
10
5.0000000000000178
20
37.000000000000099
10
185.00000000000063
20
37.000000000000057
42
-0.41421356237309609
10
190.00000000000063
20
32.000000000000099
10
190.00000000000063
20
-3.9968028886505635e-14
10
0
20
0
10
1.5543122344752192e-14
20
32.000000000000099
42
-0.41421356237309503
0
CIRCLE
5
101
100
AcDbEntity
8
INTERIOR_PROFILES
100
AcDbCircle
10
-125.00000000000016
20
4.9999999999999689
30
0
40
2.5
210
0
220
0
230
-1
0
CIRCLE
5
102
100
AcDbEntity
8
INTERIOR_PROFILES
100
AcDbCircle
10
-65.000000000000156
20
4.9999999999999867
30
0
40
2.5
210
0
220
0
230
-1
0
LWPOLYLINE
5
103
100
AcDbEntity
8
INTERIOR_PROFILES
100
AcDbPolyline
90
4
70
1
43
0.0
10
185.00000000000063
20
34.5
42
-0.99999999999999989
10
185.00000000000063
20
29.5
42
0.41421356237309531
10
160.50000000000063
20
5.0000000000000169
42
-0.99999999999999989
10
155.50000000000065
20
5.0000000000000018
42
-0.41421356237309437
0
CIRCLE
5
104
100
AcDbEntity
8
INTERIOR_PROFILES
100
AcDbCircle
10
-79.500000000000085
20
3.0000000000000382
30
0
40
2.0000000000000018
210
0
220
0
230
-1
0
CIRCLE
5
105
100
AcDbEntity
8
INTERIOR_PROFILES
100
AcDbCircle
10
-110.50000000000028
20
33.999999999999808
30
0
40
1.9999999999999929
210
0
220
0
230
-1
0
CIRCLE
5
106
100
AcDbEntity
8
INTERIOR_PROFILES
100
AcDbCircle
10
-65.000000000000156
20
32.000000000000099
30
0
40
2.5
210
0
220
0
230
-1
0
LWPOLYLINE
5
107
100
AcDbEntity
8
INTERIOR_PROFILES
100
AcDbPolyline
90
4
70
1
43
0.0
10
5.0000000000000071
20
34.5
42
-0.4142135623730947
10
34.500000000000014
20
5.0000000000000213
42
-0.99999999999999989
10
29.5
20
5.0000000000000169
42
0.41421356237309426
10
5.0000000000000169
20
29.5
42
-0.99999999999999989
0
CIRCLE
5
108
100
AcDbEntity
8
INTERIOR_PROFILES
100
AcDbCircle
10
-125.00000000000016
20
32.000000000000071
30
0
40
2.5
210
0
220
0
230
-1
0
CIRCLE
5
109
100
AcDbEntity
8
INTERIOR_PROFILES
100
AcDbCircle
10
-95.000000000000142
20
18.499999999999972
30
0
40
12.000000000000011
210
0
220
0
230
-1
0
CIRCLE
5
110
100
AcDbEntity
8
INTERIOR_PROFILES
100
AcDbCircle
10
-110.50000000000017
20
2.999999999999976
30
0
40
1.9999999999999929
210
0
220
0
230
-1
0
CIRCLE
5
111
100
AcDbEntity
8
INTERIOR_PROFILES
100
AcDbCircle
10
-79.500000000000256
20
34.000000000000092
30
0
40
1.9999999999999929
210
0
220
0
230
-1
0
LWPOLYLINE
5
112
100
AcDbEntity
8
INTERIOR_PROFILES
100
AcDbPolyline
90
4
70
1
43
0.0
10
162.50000000000063
20
5.0000000000000133
42
-0.41421356237309609
10
185.00000000000068
20
27.499999999999982
10
185.00000000000063
20
9.4999999999999929
42
0.4142135623730997
10
180.50000000000065
20
4.9999999999999964
0
LWPOLYLINE
5
113
100
AcDbEntity
8
INTERIOR_PROFILES
100
AcDbPolyline
90
4
70
1
43
0.0
10
4.9999999999999822
20
27.5
10
4.9999999999999991
20
9.4999999999999911
42
-0.41421356237309465
10
9.5000000000000036
20
4.9999999999999956
10
27.500000000000007
20
5.0000000000000089
42
0.41421356237309503
0
CIRCLE
5
114
100
AcDbEntity
8
INTERIOR_PROFILES
100
AcDbCircle
10
-185.00000000000063
20
4.9999999999999911
30
0
40
2.5
210
0
220
0
230
-1
0
CIRCLE
5
115
100
AcDbEntity
8
INTERIOR_PROFILES
100
AcDbCircle
10
-5
20
4.9999999999999911
30
0
40
2.5
210
0
220
0
230
-1
0
LINE
5
116
100
AcDbEntity
8
BEND
100
AcDbLine
10
148.1828406283845
20
37.000000000000064
30
8.8817841970012523e-15
11
148.1828406283845
21
-3.5527136788005009e-14
31
4.4408920985006262e-15
0
LINE
5
117
100
AcDbEntity
8
BEND
100
AcDbLine
10
41.817159371615929
20
-1.1102230246251565e-14
30
8.8817841970012523e-15
11
41.817159371615929
21
37.000000000000092
31
4.4408920985006262e-15
0
LINE
5
118
100
AcDbEntity
8
BEND_EXTENT
100
AcDbLine
10
154.77429471469782
20
37.000000000000064
30
8.8817841970012523e-15
11
154.77429471469782
21
-3.1086244689504383e-14
31
8.8817841970012523e-15
0
LINE
5
119
100
AcDbEntity
8
BEND_EXTENT
100
AcDbLine
10
141.59138654207118
20
37.000000000000064
30
8.8817841970012523e-15
11
141.59138654207118
21
-3.1086244689504383e-14
31
8.8817841970012523e-15
0
LINE
5
120
100
AcDbEntity
8
BEND_EXTENT
100
AcDbLine
10
48.408613457929107
20
-1.0183141373906262e-14
30
8.8817841970012523e-15
11
48.408613457929107
21
37.000000000000092
31
8.8817841970012523e-15
0
LINE
5
121
100
AcDbEntity
8
BEND_EXTENT
100
AcDbLine
10
35.225705285302773
20
-7.4100105599500822e-15
30
0
11
35.225705285302794
21
37.000000000000092
31
0
0
ENDSEC
0
SECTION
2
OBJECTS
0
DICTIONARY
5
C
100
AcDbDictionary
3
ACAD_GROUP
350
D
3
ACAD_MLINESTYLE
350
17
0
DICTIONARY
5
D
100
AcDbDictionary
0
DICTIONARY
5
1A
330
C
100
AcDbDictionary
0
DICTIONARY
5
17
100
AcDbDictionary
0
ENDSEC
0
EOF
