700 0 1 0           
30 Autodesk Translation Framework 20 ASM 228.6.0.65535 NT 24 Tue Nov 15 20:12:15 2022 
1 9.999999999999999547e-07 1.000000000000000036e-10 
body $1 -1 $-1 $2 $-1 $3 #
rgb_color-st-attrib $-1 -1 $4 $-1 $0 0.9607843137254902244 0.9607843137254902244 0.9647058823529411908 #
lump $-1 -1 $-1 $-1 $5 $0 #
transform $-1 -1 1 0 0 0 1 0 0 0 1 0 0 0 1 no_rotate no_reflect no_shear #
ATTRIB_CUSTOM-attrib $-1 -1 $-1 $1 $0 @20 Timestamp_attrib_def 1 1668442176250711 #
shell $-1 -1 $-1 $-1 $-1 $6 $-1 $2 #
face $7 -1 $-1 $8 $9 $5 $-1 $10 reversed single #
DXID-attrib $-1 -1 $-1 $-1 $6 @10 ASM ENTITY @1 0 #
face $11 -1 $-1 $12 $13 $5 $-1 $14 reversed single #
loop $-1 -1 $-1 $15 $16 $6 #
cone-surface $-1 -1 $-1 2.876209713325074802 1.181373475657345518 114.3068570149435317 0 0 -1 -6.000000000000000888 0 0 1 I I 0 1 6.000000000000000888 forward I I I I #
DXID-attrib $-1 -1 $-1 $-1 $8 @10 ASM ENTITY @1 1 #
face $17 -1 $-1 $18 $19 $5 $-1 $20 reversed single #
loop $-1 -1 $-1 $21 $22 $8 #
cone-surface $-1 -1 $-1 18.37620971332514586 16.6813734756573453 -23.142943004416626 8.499672902018117998e-16 0 -1 -1.750000000000000444 6.446159183071278536e-63 -1.487442757853170921e-15 1 I I 0 1 1.750000000000000444 forward I I I I #
loop $-1 -1 $-1 $-1 $23 $6 #
coedge $-1 -1 $-1 $16 $16 $24 $25 reversed $9 $-1 #
DXID-attrib $-1 -1 $-1 $-1 $12 @10 ASM ENTITY @1 2 #
face $26 -1 $-1 $27 $28 $5 $-1 $29 reversed single #
loop $-1 -1 $-1 $30 $31 $12 #
cone-surface $-1 -1 $-1 -12.62379028667485592 16.6813734756573453 -23.14294300441664731 8.499672902018117998e-16 0 -1 -1.750000000000000444 6.446159183071278536e-63 -1.487442757853170921e-15 1 I I 0 1 1.750000000000000444 forward I I I I #
loop $-1 -1 $-1 $-1 $32 $8 #
coedge $-1 -1 $-1 $22 $22 $33 $34 reversed $13 $-1 #
coedge $35 -1 $-1 $23 $23 $36 $37 reversed $15 $-1 #
coedge $-1 -1 $-1 $24 $24 $16 $25 forward $38 $-1 #
edge $-1 -1 $-1 $39 -3.141592653589793116 $39 3.141592653589793116 $24 $40 forward @7 unknown #
DXID-attrib $-1 -1 $-1 $-1 $18 @10 ASM ENTITY @1 3 #
face $41 -1 $-1 $42 $43 $5 $-1 $44 reversed single #
loop $-1 -1 $-1 $45 $46 $18 #
cone-surface $-1 -1 $-1 -12.62379028667485592 -14.31862652434265648 -23.14294300441664731 8.499672902018117998e-16 0 -1 -1.750000000000000444 6.446159183071278536e-63 -1.487442757853170921e-15 1 I I 0 1 1.750000000000000444 forward I I I I #
loop $-1 -1 $-1 $-1 $47 $12 #
coedge $-1 -1 $-1 $31 $31 $48 $49 reversed $19 $-1 #
coedge $50 -1 $-1 $32 $32 $51 $52 reversed $21 $-1 #
coedge $-1 -1 $-1 $33 $33 $22 $34 forward $53 $-1 #
edge $-1 -1 $-1 $54 -3.141592653589793116 $54 3.141592653589793116 $33 $55 forward @7 unknown #
ATTRIB_CUSTOM-attrib $-1 -1 $-1 $-1 $23 @17 sketch_attrib_def 1 1 3 @13 180 0 0 0 1 1 #
coedge $-1 -1 $-1 $36 $36 $23 $37 forward $56 $-1 #
edge $-1 -1 $-1 $57 -3.141592653589793116 $57 3.141592653589793116 $36 $58 forward @7 unknown #
loop $-1 -1 $-1 $59 $24 $60 #
vertex $-1 -1 $-1 $25 $61 #
ellipse-curve $-1 -1 $-1 2.876209713325074802 1.181373475657345518 109.5570570149435241 -2.16323416198921635e-16 2.802537074030266244e-33 1 -6.000000000000000888 0 0 1 I I #
DXID-attrib $-1 -1 $-1 $-1 $27 @10 ASM ENTITY @1 4 #
face $62 -1 $-1 $63 $64 $5 $-1 $65 reversed single #
loop $-1 -1 $-1 $66 $67 $27 #
cone-surface $-1 -1 $-1 18.37620971332514586 -14.31862652434265648 -23.142943004416626 8.499672902018117998e-16 0 -1 -1.750000000000000444 6.446159183071278536e-63 -1.487442757853170921e-15 1 I I 0 1 1.750000000000000444 forward I I I I #
loop $-1 -1 $-1 $-1 $68 $18 #
coedge $-1 -1 $-1 $46 $46 $69 $70 reversed $28 $-1 #
coedge $71 -1 $-1 $47 $47 $72 $73 reversed $30 $-1 #
coedge $-1 -1 $-1 $48 $48 $31 $49 forward $74 $-1 #
edge $-1 -1 $-1 $75 -3.141592653589793116 $75 3.141592653589793116 $48 $76 forward @7 unknown #
ATTRIB_CUSTOM-attrib $-1 -1 $-1 $-1 $32 @17 sketch_attrib_def 1 1 3 @13 162 0 0 0 1 1 #
coedge $-1 -1 $-1 $51 $51 $32 $52 forward $77 $-1 #
edge $-1 -1 $-1 $78 -3.141592653589793116 $78 3.141592653589793116 $51 $79 forward @7 unknown #
loop $-1 -1 $-1 $74 $33 $80 #
vertex $-1 -1 $-1 $34 $81 #
ellipse-curve $-1 -1 $-1 18.37620971332514941 16.6813734756573453 -27.89274300441662291 -7.828773059637197198e-16 7.865131049078536464e-32 1 -1.750000000000000444 6.446159183071278536e-63 -1.487442757853170921e-15 1 I I #
loop $-1 -1 $-1 $82 $36 $83 #
vertex $-1 -1 $-1 $37 $84 #
ellipse-curve $-1 -1 $-1 2.876209713325074802 1.181373475657345518 114.3068570149435317 -0 -0 -1 -6.000000000000000888 0 0 1 I I #
loop $-1 -1 $-1 $-1 $85 $60 #
face $86 -1 $-1 $83 $38 $5 $-1 $87 forward single #
point $-1 -1 $-1 8.876209713325076578 1.181373475657346184 109.5570570149435241 #
DXID-attrib $-1 -1 $-1 $-1 $42 @10 ASM ENTITY @1 5 #
face $88 -1 $-1 $89 $90 $5 $-1 $91 forward single #
loop $-1 -1 $-1 $92 $93 $42 #
cone-surface $-1 -1 $-1 2.876209713325144524 1.181373475657343519 -23.14294300441662955 8.499672902018117998e-16 0 -1 -11.50000000000000178 0 -9.774623837320837029e-15 1 I I 0 1 11.50000000000000178 forward I I I I #
loop $-1 -1 $-1 $-1 $94 $27 #
coedge $-1 -1 $-1 $67 $67 $95 $96 reversed $43 $-1 #
coedge $97 -1 $-1 $68 $68 $98 $99 reversed $45 $-1 #
coedge $-1 -1 $-1 $69 $69 $46 $70 forward $100 $-1 #
edge $-1 -1 $-1 $101 -3.141592653589793116 $101 3.141592653589793116 $69 $102 forward @7 unknown #
ATTRIB_CUSTOM-attrib $-1 -1 $-1 $-1 $47 @17 sketch_attrib_def 1 1 3 @13 160 0 0 0 1 1 #
coedge $-1 -1 $-1 $72 $72 $47 $73 forward $103 $-1 #
edge $-1 -1 $-1 $104 -3.141592653589793116 $104 3.141592653589793116 $72 $105 forward @7 unknown #
loop $-1 -1 $-1 $100 $48 $80 #
vertex $-1 -1 $-1 $49 $106 #
ellipse-curve $-1 -1 $-1 -12.62379028667485237 16.6813734756573453 -27.89274300441665133 -7.828773059637197198e-16 7.865131049078536464e-32 1 -1.750000000000000444 6.446159183071278536e-63 -1.487442757853170921e-15 1 I I #
loop $-1 -1 $-1 $103 $51 $107 #
vertex $-1 -1 $-1 $52 $108 #
ellipse-curve $-1 -1 $-1 18.37620971332514586 16.6813734756573453 -23.142943004416626 7.828773059637197198e-16 -7.865131049078536464e-32 -1 -1.750000000000000444 6.446159183071278536e-63 -1.487442757853170921e-15 1 I I #
face $109 -1 $-1 $110 $53 $5 $-1 $111 reversed single #
point $-1 -1 $-1 20.12620971332514941 16.6813734756573453 -27.89274300441662291 #
loop $-1 -1 $-1 $-1 $112 $83 #
face $113 -1 $-1 $-1 $56 $5 $-1 $114 forward single #
point $-1 -1 $-1 8.876209713325076578 1.181373475657346184 114.3068570149435317 #
coedge $115 -1 $-1 $116 $117 $118 $119 reversed $59 $-1 #
DXID-attrib $-1 -1 $-1 $-1 $60 @10 ASM ENTITY @2 28 #
plane-surface $-1 -1 $-1 -15.53240377754650581 1.181373475657312433 109.5570570149435241 2.16323416198921635e-16 -2.802537074030266244e-33 -1 10 -1.769551629420902305e-64 2.163234161989216399e-15 forward_v I I I I #
DXID-attrib $-1 -1 $-1 $-1 $63 @10 ASM ENTITY @1 6 #
face $120 -1 $-1 $121 $122 $5 $-1 $123 forward single #
loop $-1 -1 $-1 $-1 $124 $63 #
plane-surface $-1 -1 $-1 -22.12379028667485059 22.1813734756573453 -27.89274300441665133 -1 -5.681248750615584332e-48 -9.349640192219937982e-16 -2.924463696469357217e-46 -10 3.735532597754064262e-31 forward_v I I I I #
loop $-1 -1 $-1 $-1 $125 $42 #
coedge $-1 -1 $-1 $93 $93 $126 $127 reversed $64 $-1 #
coedge $128 -1 $-1 $94 $94 $129 $130 reversed $66 $-1 #
coedge $-1 -1 $-1 $95 $95 $67 $96 forward $131 $-1 #
edge $-1 -1 $-1 $132 -3.141592653589793116 $132 3.141592653589793116 $95 $133 forward @7 unknown #
ATTRIB_CUSTOM-attrib $-1 -1 $-1 $-1 $68 @17 sketch_attrib_def 1 1 3 @13 164 0 0 0 1 1 #
coedge $-1 -1 $-1 $98 $98 $68 $99 forward $134 $-1 #
edge $-1 -1 $-1 $135 -3.141592653589793116 $135 3.141592653589793116 $98 $136 forward @7 unknown #
loop $-1 -1 $-1 $131 $69 $80 #
vertex $-1 -1 $-1 $70 $137 #
ellipse-curve $-1 -1 $-1 -12.62379028667485237 -14.31862652434265648 -27.89274300441665133 -7.828773059637197198e-16 7.865131049078536464e-32 1 -1.750000000000000444 6.446159183071278536e-63 -1.487442757853170921e-15 1 I I #
loop $-1 -1 $-1 $134 $72 $107 #
vertex $-1 -1 $-1 $73 $138 #
ellipse-curve $-1 -1 $-1 -12.62379028667485592 16.6813734756573453 -23.14294300441665087 7.828773059637197198e-16 -7.865131049078536464e-32 -1 -1.750000000000000444 6.446159183071278536e-63 -1.487442757853170921e-15 1 I I #
point $-1 -1 $-1 -10.87379028667485059 16.6813734756573453 -27.89274300441665133 #
face $139 -1 $-1 $80 $77 $5 $-1 $140 forward single #
point $-1 -1 $-1 20.12620971332514586 16.6813734756573453 -23.14294300441662244 #
DXID-attrib $-1 -1 $-1 $-1 $80 @10 ASM ENTITY @2 11 #
face $141 -1 $-1 $142 $143 $5 $-1 $144 forward single #
plane-surface $-1 -1 $-1 101.05898288271257 1.181373475657303995 -27.89274300441655186 -7.828773059637197198e-16 7.865131049078536464e-32 1 -1.057355261547766152e-15 -10 -1.232595164407831822e-31 forward_v I I I I #
coedge $-1 -1 $-1 $145 $146 $147 $148 forward $82 $-1 #
DXID-attrib $-1 -1 $-1 $-1 $83 @10 ASM ENTITY @2 29 #
plane-surface $-1 -1 $-1 -15.53240377754650581 1.181373475657312433 114.3068570149435317 0 0 1 10 0 0 forward_v I I I I #
ATTRIB_CUSTOM-attrib $-1 -1 $-1 $-1 $85 @17 sketch_attrib_def 1 1 3 @13 130 0 1 0 1 1 #
coedge $149 -1 $-1 $150 $85 $151 $152 reversed $59 $-1 #
coedge $153 -1 $-1 $85 $150 $154 $155 reversed $59 $-1 #
coedge $156 -1 $-1 $157 $158 $85 $119 forward $159 $-1 #
edge $-1 -1 $-1 $160 0 $161 4.200000000000000178 $85 $162 forward @7 unknown #
DXID-attrib $-1 -1 $-1 $-1 $89 @10 ASM ENTITY @1 7 #
face $163 -1 $-1 $164 $165 $5 $-1 $166 reversed single #
loop $-1 -1 $-1 $-1 $167 $89 #
plane-surface $-1 -1 $-1 41.05898288271259844 -19.81862652434272221 -27.89274300441660159 -1.427429603089485361e-16 -1 1.113497624797255902e-17 10 -1.427429603089485459e-15 8.038656238046244208e-15 forward_v I I I I #
coedge $168 -1 $-1 $169 $170 $171 $172 forward $90 $-1 #
coedge $173 -1 $-1 $125 $125 $174 $175 reversed $92 $-1 #
coedge $-1 -1 $-1 $126 $126 $93 $127 forward $176 $-1 #
edge $-1 -1 $-1 $177 -3.141592653589793116 $177 3.141592653589793116 $126 $178 forward @7 unknown #
ATTRIB_CUSTOM-attrib $-1 -1 $-1 $-1 $94 @17 sketch_attrib_def 1 1 3 @13 166 0 0 0 1 1 #
coedge $-1 -1 $-1 $129 $129 $94 $130 forward $179 $-1 #
edge $-1 -1 $-1 $180 -3.141592653589793116 $180 3.141592653589793116 $129 $181 forward @7 unknown #
loop $-1 -1 $-1 $176 $95 $80 #
vertex $-1 -1 $-1 $96 $182 #
ellipse-curve $-1 -1 $-1 18.37620971332514941 -14.31862652434265648 -27.89274300441662291 -7.828773059637197198e-16 7.865131049078536464e-32 1 -1.750000000000000444 6.446159183071278536e-63 -1.487442757853170921e-15 1 I I #
loop $-1 -1 $-1 $179 $98 $107 #
vertex $-1 -1 $-1 $99 $183 #
ellipse-curve $-1 -1 $-1 -12.62379028667485592 -14.31862652434265648 -23.14294300441665087 7.828773059637197198e-16 -7.865131049078536464e-32 -1 -1.750000000000000444 6.446159183071278536e-63 -1.487442757853170921e-15 1 I I #
point $-1 -1 $-1 -10.87379028667485059 -14.31862652434265648 -27.89274300441665133 #
point $-1 -1 $-1 -10.87379028667485592 16.6813734756573453 -23.14294300441664731 #
DXID-attrib $-1 -1 $-1 $-1 $107 @10 ASM ENTITY @2 10 #
plane-surface $-1 -1 $-1 101.05898288271257 1.181373475657303995 -23.14294300441655494 -7.828773059637197198e-16 7.865131049078536464e-32 1 -1.057355261547766152e-15 -10 -1.232595164407831822e-31 forward_v I I I I #
DXID-attrib $-1 -1 $-1 $-1 $110 @10 ASM ENTITY @2 12 #
face $184 -1 $-1 $185 $186 $5 $-1 $187 forward single #
loop $-1 -1 $-1 $-1 $188 $110 #
plane-surface $-1 -1 $-1 38.97600971332509801 22.18137347565734885 103.2070570808287613 1.168705024027492248e-16 1 -5.551115123125784674e-16 2.775557561562891745e-15 -5.55111512312578428e-15 -10 forward_v I I I I #
coedge $189 -1 $-1 $190 $112 $191 $192 forward $82 $-1 #
coedge $193 -1 $-1 $112 $190 $194 $195 forward $82 $-1 #
coedge $-1 -1 $-1 $158 $157 $112 $148 reversed $159 $-1 #
edge $-1 -1 $-1 $196 0 $197 4.200000000000000178 $147 $198 forward @7 unknown #
ATTRIB_CUSTOM-attrib $-1 -1 $-1 $-1 $116 @17 sketch_attrib_def 1 1 3 @13 129 0 1 0 2 2 #
coedge $-1 -1 $-1 $117 $116 $199 $200 forward $59 $-1 #
coedge $201 -1 $-1 $202 $203 $116 $152 forward $204 $-1 #
edge $-1 -1 $-1 $205 0 $160 5 $116 $206 forward @7 unknown #
ATTRIB_CUSTOM-attrib $-1 -1 $-1 $-1 $117 @17 sketch_attrib_def 1 1 3 @13 131 0 1 0 1 2 #
coedge $207 -1 $-1 $208 $209 $117 $155 forward $210 $-1 #
edge $-1 -1 $-1 $161 0 $211 5 $117 $212 forward @7 unknown #
ATTRIB_CUSTOM-attrib $-1 -1 $-1 $-1 $118 @17 sketch_attrib_def 1 1 3 @13 130 0 1 0 1 1 #
coedge $-1 -1 $-1 $147 $118 $209 $213 forward $159 $-1 #
coedge $-1 -1 $-1 $118 $147 $202 $214 reversed $159 $-1 #
loop $-1 -1 $-1 $-1 $118 $215 #
vertex $-1 -1 $-1 $152 $216 #
vertex $-1 -1 $-1 $155 $217 #
straight-curve $-1 -1 $-1 -22.12379028667491809 22.18137347565734885 109.5570570149435241 -2.748047793586445379e-47 -10 1.270342268938402808e-31 F 0 F 4.200000000000000178 #
DXID-attrib $-1 -1 $-1 $-1 $121 @10 ASM ENTITY @1 8 #
face $218 -1 $-1 $107 $219 $5 $-1 $220 forward single #
loop $-1 -1 $-1 $-1 $221 $121 #
cone-surface $-1 -1 $-1 27.87620971332513164 1.181373475657284899 -16.79294300441660681 1.057355261547766349e-16 1 1.664408122508810091e-32 11.09980000000000189 -1.173643193212789957e-15 3.080813382183580243e-15 1 I I -0 -1 8.392414000000000485 forward I I I I #
coedge $-1 -1 $-1 $222 $223 $224 $225 forward $122 $-1 #
ATTRIB_CUSTOM-attrib $-1 -1 $-1 $-1 $124 @17 sketch_attrib_def 1 1 3 @13 164 0 1 0 1 1 #
coedge $-1 -1 $-1 $226 $124 $227 $228 forward $90 $-1 #
coedge $-1 -1 $-1 $124 $226 $229 $230 reversed $90 $-1 #
coedge $231 -1 $-1 $232 $233 $124 $172 reversed $234 $-1 #
edge $-1 -1 $-1 $235 0 $236 4.200000000000000178 $171 $237 forward @7 unknown #
ATTRIB_CUSTOM-attrib $-1 -1 $-1 $-1 $125 @17 sketch_attrib_def 1 1 3 @13 177 0 0 0 1 1 #
coedge $-1 -1 $-1 $174 $174 $125 $175 forward $238 $-1 #
edge $-1 -1 $-1 $239 -3.141592653589793116 $239 3.141592653589793116 $174 $240 forward @7 unknown #
loop $-1 -1 $-1 $234 $126 $80 #
vertex $-1 -1 $-1 $127 $241 #
ellipse-curve $-1 -1 $-1 2.87620971332514852 1.181373475657343519 -27.89274300441663712 -7.828773059637197198e-16 7.865131049078536464e-32 1 -11.50000000000000178 0 -9.774623837320837029e-15 1 I I #
loop $-1 -1 $-1 $238 $129 $107 #
vertex $-1 -1 $-1 $130 $242 #
ellipse-curve $-1 -1 $-1 18.37620971332514586 -14.31862652434265648 -23.142943004416626 7.828773059637197198e-16 -7.865131049078536464e-32 -1 -1.750000000000000444 6.446159183071278536e-63 -1.487442757853170921e-15 1 I I #
point $-1 -1 $-1 20.12620971332514941 -14.31862652434265648 -27.89274300441662291 #
point $-1 -1 $-1 -10.87379028667485592 -14.31862652434265648 -23.14294300441664731 #
DXID-attrib $-1 -1 $-1 $-1 $142 @10 ASM ENTITY @2 13 #
face $243 -1 $-1 $244 $245 $5 $-1 $246 forward single #
loop $-1 -1 $-1 $247 $248 $142 #
plane-surface $-1 -1 $-1 34.22620971332511886 1.181373475657311101 43.20705708082876839 -1 1.057355261547766349e-16 -2.77555756156289283e-16 -1.057355261547766349e-15 -10 -1.664408122508810091e-31 forward_v I I I I #
coedge $-1 -1 $-1 $249 $250 $251 $252 reversed $143 $-1 #
ATTRIB_CUSTOM-attrib $-1 -1 $-1 $-1 $145 @17 sketch_attrib_def 1 1 3 @13 144 0 1 0 1 1 #
coedge $-1 -1 $-1 $146 $145 $253 $254 forward $82 $-1 #
coedge $255 -1 $-1 $209 $208 $145 $192 reversed $210 $-1 #
edge $-1 -1 $-1 $197 0 $256 5 $191 $257 forward @7 unknown #
ATTRIB_CUSTOM-attrib $-1 -1 $-1 $-1 $146 @17 sketch_attrib_def 1 1 3 @13 142 0 1 0 1 1 #
coedge $258 -1 $-1 $203 $202 $146 $195 reversed $204 $-1 #
edge $-1 -1 $-1 $259 1.318277301825682812 $196 6.318277301825682812 $146 $260 forward @7 unknown #
vertex $-1 -1 $-1 $214 $261 #
vertex $-1 -1 $-1 $192 $262 #
straight-curve $-1 -1 $-1 -22.12379028667491809 22.18137347565734885 114.3068570149435317 -2.748047793586445379e-47 -10 1.270342268938402808e-31 I I #
coedge $-1 -1 $-1 $263 $264 $150 $200 reversed $265 $-1 #
edge $-1 -1 $-1 $205 -2.159068673782869485 $211 2.040931326217137798 $150 $266 forward @7 tangent #
ATTRIB_CUSTOM-attrib $-1 -1 $-1 $-1 $151 @17 sketch_attrib_def 1 1 3 @13 129 0 1 0 2 2 #
coedge $-1 -1 $-1 $194 $151 $158 $214 forward $204 $-1 #
coedge $-1 -1 $-1 $151 $194 $267 $268 forward $204 $-1 #
loop $-1 -1 $-1 $-1 $151 $269 #
vertex $-1 -1 $-1 $200 $270 #
straight-curve $-1 -1 $-1 27.87620971332508191 22.18137347565734885 109.5570570149435241 -10 1.769551629420902305e-64 -2.163234161989216399e-15 F 0 F 5 #
ATTRIB_CUSTOM-attrib $-1 -1 $-1 $-1 $154 @17 sketch_attrib_def 1 1 3 @13 131 0 1 0 1 2 #
coedge $-1 -1 $-1 $191 $154 $271 $272 forward $210 $-1 #
coedge $-1 -1 $-1 $154 $191 $157 $213 reversed $210 $-1 #
loop $-1 -1 $-1 $-1 $154 $273 #
vertex $-1 -1 $-1 $200 $274 #
straight-curve $-1 -1 $-1 -22.12379028667491809 -19.81862652434265115 109.5570570149435241 10 -1.465494392505206633e-14 2.163234161989216399e-15 F 0 F 5 #
edge $-1 -1 $-1 $161 0 $197 0.4749800000000004019 $157 $275 forward @7 unknown #
edge $-1 -1 $-1 $160 0 $196 0.4749800000000004019 $158 $276 forward @7 unknown #
face $277 -1 $-1 $60 $159 $5 $-1 $278 forward single #
point $-1 -1 $-1 -22.12379028667491809 22.18137347565734885 109.5570570149435241 #
point $-1 -1 $-1 -22.12379028667491809 -19.81862652434265115 109.5570570149435241 #
DXID-attrib $-1 -1 $-1 $-1 $164 @10 ASM ENTITY @1 9 #
loop $-1 -1 $-1 $-1 $279 $164 #
plane-surface $-1 -1 $-1 27.87620971332514586 22.18137347565727779 -23.1429430044165656 1.057355261547766349e-16 1 1.664408122508810091e-32 0 -1.664408122508810091e-31 10 forward_v I I I I #
coedge $-1 -1 $-1 $280 $281 $282 $283 reversed $165 $-1 #
coedge $-1 -1 $-1 $227 $167 $284 $285 reversed $122 $-1 #
coedge $286 -1 $-1 $167 $227 $233 $287 reversed $122 $-1 #
coedge $-1 -1 $-1 $288 $289 $167 $225 reversed $245 $-1 #
edge $-1 -1 $-1 $290 -1.948800485666256188 $291 -1.473820485666256674 $167 $292 forward @7 tangent #
coedge $-1 -1 $-1 $170 $169 $293 $294 reversed $90 $-1 #
coedge $-1 -1 $-1 $223 $222 $169 $228 reversed $122 $-1 #
edge $-1 -1 $-1 $236 0 $295 0.4749799999999999578 $169 $296 forward @7 unknown #
coedge $-1 -1 $-1 $297 $298 $170 $230 forward $299 $-1 #
edge $-1 -1 $-1 $235 0 $300 0.4749799999999999578 $170 $301 forward @7 unknown #
ATTRIB_CUSTOM-attrib $-1 -1 $-1 $-1 $171 @17 sketch_attrib_def 1 1 3 @13 164 0 1 0 1 1 #
coedge $302 -1 $-1 $282 $171 $298 $303 forward $234 $-1 #
coedge $304 -1 $-1 $171 $282 $223 $287 forward $234 $-1 #
loop $-1 -1 $-1 $-1 $282 $80 #
vertex $-1 -1 $-1 $172 $305 #
vertex $-1 -1 $-1 $172 $306 #
straight-curve $-1 -1 $-1 -22.12379028667485059 22.1813734756573453 -27.89274300441665133 -2.924463696469357217e-46 -10 3.735532597754064262e-31 F 0 F 4.200000000000000178 #
loop $-1 -1 $-1 $307 $174 $107 #
vertex $-1 -1 $-1 $175 $308 #
ellipse-curve $-1 -1 $-1 2.876209713325144524 1.181373475657343519 -23.14294300441663665 7.828773059637197198e-16 -7.865131049078536464e-32 -1 -11.50000000000000178 0 -9.774623837320837029e-15 1 I I #
point $-1 -1 $-1 14.37620971332514941 1.181373475657344851 -27.89274300441661936 #
point $-1 -1 $-1 20.12620971332514586 -14.31862652434265648 -23.14294300441662244 #
DXID-attrib $-1 -1 $-1 $-1 $185 @10 ASM ENTITY @2 14 #
face $309 -1 $-1 $310 $265 $5 $-1 $311 forward single #
loop $-1 -1 $-1 $-1 $224 $185 #
plane-surface $-1 -1 $-1 27.87620971332514941 -19.81862652434271865 -27.8927430044166087 -1.057355261547766349e-16 -1 -1.664408122508810091e-32 0 1.664408122508810091e-31 -10 forward_v I I I I #
loop $-1 -1 $-1 $312 $313 $142 #
coedge $-1 -1 $-1 $248 $248 $314 $315 forward $186 $-1 #
coedge $-1 -1 $-1 $316 $188 $317 $318 forward $143 $-1 #
coedge $319 -1 $-1 $188 $316 $320 $321 reversed $143 $-1 #
coedge $-1 -1 $-1 $322 $323 $188 $252 forward $219 $-1 #
edge $-1 -1 $-1 $324 1.473820485666253122 $325 1.948800485666253079 $251 $326 forward @7 tangent #
coedge $-1 -1 $-1 $327 $328 $190 $254 reversed $329 $-1 #
edge $-1 -1 $-1 $256 -2.040931326217137798 $259 2.159068673782869485 $190 $330 forward @7 tangent #
ATTRIB_CUSTOM-attrib $-1 -1 $-1 $-1 $191 @17 sketch_attrib_def 1 1 3 @13 144 0 1 0 1 1 #
vertex $-1 -1 $-1 $272 $331 #
straight-curve $-1 -1 $-1 -22.12379028667491809 -19.81862652434265115 114.3068570149435317 10 -1.465494392505206633e-14 2.163234161989216399e-15 I I #
ATTRIB_CUSTOM-attrib $-1 -1 $-1 $-1 $194 @17 sketch_attrib_def 1 1 3 @13 142 0 1 0 1 1 #
vertex $-1 -1 $-1 $268 $332 #
straight-curve $-1 -1 $-1 41.05898273158190648 22.18137347565734885 114.3068570149435317 -10 1.057355261547766547e-15 6.123233995736765296e-16 I I #
point $-1 -1 $-1 -22.12379028667491809 22.18137347565734885 114.3068570149435317 #
point $-1 -1 $-1 -22.12379028667491809 -19.8186265243426547 114.3068570149435317 #
coedge $-1 -1 $-1 $333 $199 $334 $335 reversed $265 $-1 #
coedge $-1 -1 $-1 $199 $333 $336 $337 forward $265 $-1 #
loop $-1 -1 $-1 $-1 $199 $244 #
straight-curve $-1 -1 $-1 27.87620971332508191 0.5906867378286542181 109.5570570149435241 -1.057355261547766547e-15 -10 -1.232595164407830946e-31 F -2.159068673782869485 F 2.040931326217137798 #
coedge $-1 -1 $-1 $338 $334 $203 $268 reversed $339 $-1 #
edge $-1 -1 $-1 $259 -1.94880048566625419 $205 -1.473820485666254898 $203 $340 forward @7 tangent #
face $341 -1 $-1 $273 $204 $5 $-1 $342 forward single #
point $-1 -1 $-1 27.87620971332508191 22.1813734756573524 109.5570570149435241 #
coedge $-1 -1 $-1 $336 $343 $208 $272 reversed $344 $-1 #
edge $-1 -1 $-1 $211 1.4738204856662529 $256 1.948800485666252413 $208 $345 forward @7 tangent #
face $346 -1 $-1 $215 $210 $5 $-1 $347 forward single #
point $-1 -1 $-1 27.87620971332508191 -19.81862652434272576 109.5570570149435241 #
straight-curve $-1 -1 $-1 -22.12379028667491809 -19.81862652434265115 109.5570570149435241 0 0 10 I I #
straight-curve $-1 -1 $-1 -22.12379028667491809 22.18137347565734885 109.5570570149435241 0 0 10 I I #
DXID-attrib $-1 -1 $-1 $-1 $215 @10 ASM ENTITY @2 27 #
plane-surface $-1 -1 $-1 -22.12379028667491809 22.18137347565734885 109.5570570149435241 -1 2.748047793586445501e-48 0 -2.748047793586445379e-47 -10 1.270342268938402808e-31 forward_v I I I I #
coedge $-1 -1 $-1 $323 $322 $348 $349 reversed $219 $-1 #
coedge $350 -1 $-1 $351 $221 $322 $352 forward $165 $-1 #
coedge $353 -1 $-1 $221 $351 $288 $354 forward $165 $-1 #
coedge $-1 -1 $-1 $233 $232 $221 $283 forward $234 $-1 #
edge $-1 -1 $-1 $355 -2.159068673782869485 $290 2.040931326217137354 $282 $356 forward @7 tangent #
coedge $-1 -1 $-1 $357 $293 $222 $285 forward $307 $-1 #
edge $-1 -1 $-1 $295 -18.31827731693874028 $291 -13.31827731693874206 $222 $358 forward @7 unknown #
ATTRIB_CUSTOM-attrib $-1 -1 $359 $-1 $223 @17 sketch_attrib_def 1 1 3 @13 165 0 1 0 1 2 #
edge $-1 -1 $-1 $290 13.31827731693874028 $236 18.31827731693874028 $223 $360 forward @7 unknown #
coedge $361 -1 $-1 $362 $224 $281 $354 reversed $245 $-1 #
coedge $-1 -1 $-1 $224 $362 $363 $364 reversed $245 $-1 #
vertex $-1 -1 $-1 $225 $365 #
vertex $-1 -1 $-1 $225 $366 #
straight-curve $-1 -1 $-1 27.87620971332512099 -19.81862652434272221 -8.404738147754049038 -7.960519350787811273e-15 1.113497624797266872e-16 10 F -1.948800485666256632 F -1.473820485666256674 #
coedge $-1 -1 $-1 $284 $367 $226 $294 forward $307 $-1 #
edge $-1 -1 $-1 $300 0 $295 4.200000000000000178 $226 $368 forward @7 unknown #
vertex $-1 -1 $-1 $228 $369 #
straight-curve $-1 -1 $-1 -22.12379028667485059 -19.81862652434265826 -27.89274300441665133 -9.349640192219937587e-15 0 10 I I #
coedge $-1 -1 $-1 $348 $229 $367 $370 forward $299 $-1 #
coedge $371 -1 $-1 $229 $348 $232 $303 reversed $299 $-1 #
loop $-1 -1 $-1 $-1 $348 $372 #
vertex $-1 -1 $-1 $294 $373 #
straight-curve $-1 -1 $-1 -22.12379028667485059 22.1813734756573453 -27.89274300441665133 -9.349640192219937587e-15 0 10 I I #
ATTRIB_CUSTOM-attrib $-1 -1 $374 $-1 $232 @17 sketch_attrib_def 1 1 3 @13 163 0 1 0 2 2 #
edge $-1 -1 $-1 $235 -18.31827731693874028 $355 -13.31827731693874028 $232 $375 forward @7 unknown #
ATTRIB_CUSTOM-attrib $-1 -1 $376 $-1 $233 @17 sketch_attrib_def 1 1 3 @13 165 0 1 0 1 2 #
point $-1 -1 $-1 -22.12379028667485059 22.1813734756573453 -27.89274300441665133 #
point $-1 -1 $-1 -22.12379028667485059 -19.81862652434265826 -27.89274300441665133 #
loop $-1 -1 $-1 $-1 $357 $107 #
point $-1 -1 $-1 14.37620971332514586 1.181373475657344851 -23.14294300441662244 #
DXID-attrib $-1 -1 $-1 $-1 $244 @10 ASM ENTITY @2 15 #
face $377 -1 $-1 $372 $339 $5 $-1 $378 forward single #
cone-surface $-1 -1 $-1 27.87620971332509967 1.181373475657307104 103.2070570149435298 -1.057355261547766349e-16 -1 -1.664408122508810091e-32 6.350000000000001421 -6.714205910828317601e-16 1.762479051592437191e-15 1 I I -0 -1 8.392414000000000485 forward I I I I #
loop $-1 -1 $-1 $-1 $379 $142 #
coedge $-1 -1 $-1 $313 $313 $380 $381 forward $247 $-1 #
coedge $-1 -1 $-1 $314 $314 $248 $315 reversed $382 $-1 #
edge $-1 -1 $-1 $383 -3.141592653589793116 $383 3.141592653589793116 $314 $384 forward @7 unknown #
coedge $-1 -1 $-1 $250 $249 $385 $386 reversed $143 $-1 #
coedge $-1 -1 $-1 $379 $387 $249 $318 reversed $312 $-1 #
edge $-1 -1 $-1 $324 -12.00000000852453574 $388 -6.588523504547083576e-09 $249 $389 forward @7 unknown #
ATTRIB_CUSTOM-attrib $-1 -1 $-1 $-1 $250 @17 sketch_attrib_def 1 1 3 @13 142 0 1 0 1 1 #
coedge $390 -1 $-1 $391 $392 $250 $321 forward $393 $-1 #
edge $-1 -1 $-1 $325 -12.00000000852453574 $394 -6.588523504547083576e-09 $320 $395 forward @7 unknown #
coedge $396 -1 $-1 $279 $251 $280 $352 reversed $219 $-1 #
coedge $-1 -1 $-1 $251 $279 $397 $398 forward $219 $-1 #
vertex $-1 -1 $-1 $398 $399 #
vertex $-1 -1 $-1 $352 $400 #
straight-curve $-1 -1 $-1 19.48800485666257032 22.18137347565728845 -16.79294300441660681 10 -1.168705024027490818e-15 2.72559736191891326e-15 F 1.473820485666253122 F 1.948800485666253079 #
coedge $401 -1 $-1 $402 $253 $343 $403 forward $329 $-1 #
coedge $404 -1 $-1 $253 $402 $338 $405 forward $329 $-1 #
loop $-1 -1 $-1 $-1 $253 $406 #
straight-curve $-1 -1 $-1 27.87620971332508191 0.5906867378286542181 114.3068570149435317 1.057355261547766547e-15 10 1.232595164407830946e-31 F -2.040931326217137798 F 2.159068673782869485 #
point $-1 -1 $-1 27.87620971332508191 -19.81862652434272576 114.3068570149435317 #
point $-1 -1 $-1 27.87620971332508191 22.1813734756573524 114.3068570149435317 #
coedge $-1 -1 $-1 $264 $263 $387 $407 forward $265 $-1 #
coedge $-1 -1 $-1 $267 $385 $263 $335 forward $339 $-1 #
edge $-1 -1 $-1 $388 1.164008957469234459e-47 $205 1.570796326794900111 $334 $408 forward @7 unknown #
coedge $-1 -1 $-1 $409 $271 $264 $337 reversed $344 $-1 #
edge $-1 -1 $-1 $410 5.820044787346172295e-48 $211 1.570796326794899445 $336 $411 forward @7 unknown #
coedge $412 -1 $-1 $385 $267 $328 $405 reversed $339 $-1 #
loop $-1 -1 $-1 $-1 $267 $310 #
straight-curve $-1 -1 $-1 27.87620971332509967 22.18137347565735951 94.81885215828098978 -6.123233995736763324e-16 1.113497624797260216e-16 -10 F -1.948800485666254856 F -1.473820485666254898 #
DXID-attrib $-1 -1 $-1 $-1 $269 @10 ASM ENTITY @2 25 #
plane-surface $-1 -1 $-1 -8.941017268418089969 22.18137347565734885 109.5570570149435241 1.769551629420902178e-65 1 0 -10 1.769551629420902305e-64 -2.163234161989216399e-15 forward_v I I I I #
coedge $413 -1 $-1 $271 $409 $327 $403 reversed $344 $-1 #
loop $-1 -1 $-1 $-1 $271 $414 #
straight-curve $-1 -1 $-1 27.87620971332508191 -19.81862652434272576 94.81885215828100399 6.123233995736763324e-16 -1.113497624797260216e-16 10 F 1.4738204856662529 F 1.948800485666252857 #
DXID-attrib $-1 -1 $-1 $-1 $273 @10 ASM ENTITY @2 26 #
plane-surface $-1 -1 $-1 -22.12379028667491809 -19.81862652434265115 109.5570570149435241 -1.465494392505206554e-15 -1 0 10 -1.465494392505206633e-14 2.163234161989216399e-15 forward_v I I I I #
coedge $-1 -1 $-1 $298 $297 $279 $349 forward $299 $-1 #
edge $-1 -1 $-1 $415 1.473820485666252456 $355 1.948800485666251969 $348 $416 forward @7 tangent #
ATTRIB_CUSTOM-attrib $-1 -1 $-1 $-1 $280 @17 sketch_attrib_def 1 1 3 @13 142 0 1 0 1 1 #
coedge $-1 -1 $-1 $281 $280 $392 $417 forward $165 $-1 #
edge $-1 -1 $-1 $355 -4.000875780194815721e-16 $325 1.570796326794895892 $280 $418 forward @7 unknown #
ATTRIB_CUSTOM-attrib $-1 -1 $-1 $-1 $281 @17 sketch_attrib_def 1 1 3 @13 144 0 1 0 1 1 #
edge $-1 -1 $-1 $419 2.000437890097404656e-16 $290 1.570796326794896558 $288 $420 forward @7 unknown #
vertex $-1 -1 $-1 $283 $421 #
straight-curve $-1 -1 $-1 27.8762097133251352 0.5906867378286542181 -27.89274300441661225 -1.057355261547766349e-15 -10 -1.232595164407832698e-31 F -2.159068673782869485 F 2.040931326217137354 #
coedge $-1 -1 $-1 $367 $284 $422 $423 forward $307 $-1 #
straight-curve $-1 -1 $-1 161.0589828827125416 -19.81862652434273997 -23.1429430044165052 10 -1.427429603089485459e-15 8.038656238046244208e-15 I I #
ATTRIB_CUSTOM-attrib $-1 -1 $-1 $286 $223 @17 sketch_attrib_def 1 1 3 @13 144 0 1 0 1 1 #
straight-curve $-1 -1 $-1 161.0589828827125416 -19.81862652434273997 -27.89274300441650567 -10 1.427429603089485459e-15 -8.038656238046244208e-15 F 13.31827731693874028 F 18.31827731693874028 #
ATTRIB_CUSTOM-attrib $-1 -1 $-1 $-1 $288 @17 sketch_attrib_def 1 1 3 @13 144 0 1 0 1 1 #
coedge $-1 -1 $-1 $289 $288 $424 $425 forward $245 $-1 #
coedge $-1 -1 $-1 $426 $422 $289 $364 forward $427 $-1 #
edge $-1 -1 $-1 $291 0 $428 1.570796326794897002 $289 $429 forward @7 unknown #
point $-1 -1 $-1 27.87620971332514586 -19.81862652434272221 -27.89274300441661225 #
point $-1 -1 $-1 27.87620971332513875 -19.81862652434272221 -23.14294300441661179 #
coedge $-1 -1 $-1 $293 $357 $297 $370 reversed $307 $-1 #
straight-curve $-1 -1 $-1 -22.12379028667485414 22.1813734756573453 -23.14294300441665087 -2.924463696469357217e-46 -10 3.735532597754064262e-31 I I #
point $-1 -1 $-1 -22.12379028667485414 -19.81862652434265826 -23.14294300441665087 #
edge $-1 -1 $-1 $300 -18.31827731693874028 $415 -13.31827731693874028 $297 $430 forward @7 unknown #
ATTRIB_CUSTOM-attrib $-1 -1 $431 $-1 $298 @17 sketch_attrib_def 1 1 3 @13 163 0 1 0 2 2 #
face $432 -1 $-1 $433 $299 $5 $-1 $434 forward single #
point $-1 -1 $-1 -22.12379028667485414 22.1813734756573453 -23.14294300441665087 #
ATTRIB_CUSTOM-attrib $-1 -1 $-1 $302 $232 @17 sketch_attrib_def 1 1 3 @13 142 0 1 0 1 1 #
straight-curve $-1 -1 $-1 161.0589828827125416 22.18137347565733819 -27.89274300441650567 10 -1.057355261547766152e-15 5.05321549807430348e-15 I I #
ATTRIB_CUSTOM-attrib $-1 -1 $-1 $304 $233 @17 sketch_attrib_def 1 1 3 @13 144 0 1 0 1 1 #
DXID-attrib $-1 -1 $-1 $-1 $310 @10 ASM ENTITY @2 16 #
plane-surface $-1 -1 $-1 27.87620971332509967 22.18137347565736306 114.3068570149435317 1.057355261547766349e-16 1 1.664408122508810091e-32 0 -1.664408122508810091e-31 10 forward_v I I I I #
coedge $-1 -1 $-1 $435 $317 $426 $436 reversed $312 $-1 #
coedge $-1 -1 $-1 $380 $380 $313 $381 reversed $437 $-1 #
edge $-1 -1 $-1 $438 -3.141592653589793116 $438 3.141592653589793116 $380 $439 forward @7 unknown #
loop $-1 -1 $-1 $440 $314 $441 #
vertex $-1 -1 $-1 $315 $442 #
ellipse-curve $-1 -1 $-1 34.22620971332511886 6.181373504133986785 43.20705701494351558 1 -4.576890375219183389e-17 2.775557561562892337e-16 5.721112969023979083e-17 1.25 -1.055719509501507653e-80 1 I I #
coedge $-1 -1 $-1 $334 $338 $316 $386 forward $339 $-1 #
edge $-1 -1 $-1 $394 -1.948800485666254856 $388 -1.473820485666254898 $385 $443 forward @7 tangent #
coedge $-1 -1 $-1 $317 $435 $333 $407 reversed $312 $-1 #
vertex $-1 -1 $-1 $318 $444 #
straight-curve $-1 -1 $-1 34.22620971332510464 22.18137347565734885 103.2070570808287613 0 0 10 I I #
ATTRIB_CUSTOM-attrib $-1 -1 $-1 $-1 $320 @17 sketch_attrib_def 1 1 3 @13 142 0 1 0 1 1 #
coedge $-1 -1 $-1 $445 $320 $402 $446 reversed $393 $-1 #
coedge $-1 -1 $-1 $320 $445 $351 $417 reversed $393 $-1 #
loop $-1 -1 $-1 $447 $392 $433 #
vertex $-1 -1 $-1 $386 $448 #
straight-curve $-1 -1 $-1 38.97600971332509801 22.18137347565734885 103.2070570808287613 0 0 10 I I #
ATTRIB_CUSTOM-attrib $-1 -1 $-1 $-1 $322 @17 sketch_attrib_def 1 1 3 @13 142 0 1 0 1 1 #
coedge $-1 -1 $-1 $422 $426 $323 $398 reversed $427 $-1 #
edge $-1 -1 $-1 $415 -9.781894788530239374e-31 $324 1.570796326794897002 $323 $449 forward @7 unknown #
point $-1 -1 $-1 34.22620971332510464 22.18137347565734885 -16.79294300441659615 #
point $-1 -1 $-1 38.97600971332509801 22.18137347565734885 -16.79294300441659615 #
ATTRIB_CUSTOM-attrib $-1 -1 $-1 $-1 $327 @17 sketch_attrib_def 1 1 3 @13 144 0 1 0 1 1 #
coedge $-1 -1 $-1 $328 $327 $391 $446 forward $329 $-1 #
edge $-1 -1 $-1 $256 -1.200262734058440279e-15 $450 1.570796326794897002 $343 $451 forward @7 unknown #
ATTRIB_CUSTOM-attrib $-1 -1 $-1 $-1 $328 @17 sketch_attrib_def 1 1 3 @13 142 0 1 0 1 1 #
edge $-1 -1 $-1 $394 6.659090145705001539e-48 $259 1.570796326794898556 $328 $452 forward @7 unknown #
face $453 -1 $-1 $269 $329 $5 $-1 $454 reversed single #
edge $-1 -1 $-1 $388 -2.159068673782869485 $410 2.040931326217137798 $333 $455 forward @7 tangent #
ellipse-curve $-1 -1 $-1 27.87620971332510322 22.1813734756573524 103.2070570149435298 -1.057355261547766349e-16 -1 -1.664408122508810091e-32 6.349999999999993427 0 0 1 I I #
coedge $-1 -1 $-1 $343 $336 $456 $457 forward $344 $-1 #
vertex $-1 -1 $-1 $458 $459 #
ellipse-curve $-1 -1 $-1 27.87620971332509967 -19.81862652434272576 103.2070570149435298 -1.057355261547766349e-16 -1 -1.664408122508810091e-32 6.349999999999997868 0 0 1 I I #
ATTRIB_CUSTOM-attrib $-1 -1 $-1 $-1 $338 @17 sketch_attrib_def 1 1 3 @13 142 0 1 0 1 1 #
ATTRIB_CUSTOM-attrib $-1 -1 $-1 $-1 $343 @17 sketch_attrib_def 1 1 3 @13 144 0 1 0 1 1 #
face $460 -1 $-1 $441 $344 $5 $-1 $461 forward single #
vertex $-1 -1 $-1 $349 $462 #
straight-curve $-1 -1 $-1 27.87620971332513164 22.18137347565727779 -8.404738147754052591 7.960519350787811273e-15 -1.113497624797249616e-16 -10 F 1.473820485666252456 F 1.948800485666252413 #
edge $-1 -1 $-1 $325 -2.159068673782869485 $419 2.040931326217137354 $351 $463 forward @7 tangent #
ellipse-curve $-1 -1 $-1 27.8762097133251352 22.1813734756573524 -16.79294300441660681 -1.057355261547766349e-16 -1 -1.664408122508810091e-32 1.776356839400250465e-14 0 -11.09979999999996458 1 I I #
vertex $-1 -1 $-1 $417 $464 #
ellipse-curve $-1 -1 $-1 27.87620971332513164 -19.81862652434271865 -16.79294300441660681 1.057355261547766349e-16 1 1.664408122508810091e-32 11.09979999999999833 0 1.332267629550187849e-14 1 I I #
point $-1 -1 $-1 27.87620971332514941 22.1813734756573524 -27.89274300441657317 #
coedge $-1 -1 $-1 $363 $397 $357 $423 reversed $427 $-1 #
edge $-1 -1 $-1 $291 -2.040931326217137354 $415 2.159068673782869485 $357 $465 forward @7 tangent #
coedge $-1 -1 $-1 $466 $467 $362 $425 reversed $468 $-1 #
edge $-1 -1 $-1 $419 -1.948800485666256632 $428 -1.473820485666256674 $362 $469 forward @7 tangent #
coedge $-1 -1 $-1 $397 $363 $379 $436 forward $427 $-1 #
loop $-1 -1 $-1 $-1 $422 $470 #
vertex $-1 -1 $-1 $436 $471 #
ellipse-curve $-1 -1 $-1 27.87620971332513164 -19.81862652434271865 -16.79294300441660681 -1.057355261547766349e-16 -1 -1.664408122508810091e-32 8.881784197001252323e-15 0 -6.350000000000004974 1 I I #
straight-curve $-1 -1 $-1 161.0589828827125416 22.18137347565733819 -23.1429430044165052 10 -1.057355261547766152e-15 5.05321549807430348e-15 I I #
ATTRIB_CUSTOM-attrib $-1 -1 $-1 $371 $298 @17 sketch_attrib_def 1 1 3 @13 142 0 1 0 1 1 #
DXID-attrib $-1 -1 $-1 $-1 $372 @10 ASM ENTITY @2 17 #
face $472 -1 $-1 $414 $393 $5 $-1 $473 reversed single #
plane-surface $-1 -1 $-1 161.0589828827125416 22.18137347565733819 -27.89274300441650567 -4.493759861578018325e-16 1 -1.113497624797285792e-17 -10 -4.493759861578018325e-15 -7.828773059637196409e-15 forward_v I I I I #
coedge $-1 -1 $-1 $387 $379 $467 $458 forward $312 $-1 #
edge $-1 -1 $-1 $428 -2.040931326217137354 $324 2.159068673782869485 $426 $474 forward @7 tangent #
loop $-1 -1 $-1 $475 $380 $476 #
vertex $-1 -1 $-1 $381 $477 #
ellipse-curve $-1 -1 $-1 34.22620971332511886 -3.818626495865400816 43.20705699558339319 1 -4.576890375219183389e-17 2.775557561562892337e-16 5.721112969023979083e-17 1.25 -1.055719509501507653e-80 1 I I #
loop $-1 -1 $-1 $-1 $478 $441 #
face $479 -1 $-1 $476 $382 $5 $-1 $480 forward single #
point $-1 -1 $-1 34.22620971332511886 4.931373504133987673 43.20705701494351558 #
straight-curve $-1 -1 $-1 19.48800485666255256 22.18137347565734885 103.207057014943544 -10 1.168705024027492198e-15 0 F -1.948800485666254856 F -1.473820485666254898 #
point $-1 -1 $-1 34.22620971332510464 22.18137347565734885 103.2070570149435298 #
coedge $481 -1 $-1 $392 $391 $466 $482 forward $393 $-1 #
edge $-1 -1 $-1 $450 -2.040931326217137798 $394 2.159068673782869485 $402 $483 forward @7 tangent #
loop $-1 -1 $-1 $484 $485 $433 #
point $-1 -1 $-1 38.97600971332509801 22.18137347565734885 103.2070570149435298 #
ellipse-curve $-1 -1 $-1 27.8762097133251352 22.1813734756573524 -16.79294300441660681 -1.057355261547766349e-16 -1 -1.664408122508810091e-32 8.881784197001252323e-15 0 -6.349999999999960565 1 I I #
vertex $-1 -1 $-1 $446 $486 #
ellipse-curve $-1 -1 $-1 27.87620971332509967 -19.81862652434272576 103.2070570149435298 1.057355261547766349e-16 1 1.664408122508810091e-32 -4.440892098500626162e-15 0 11.09980000000000189 1 I I #
ellipse-curve $-1 -1 $-1 27.87620971332510322 22.1813734756573524 103.2070570149435298 -1.057355261547766349e-16 -1 -1.664408122508810091e-32 11.09979999999999833 0 0 1 I I #
DXID-attrib $-1 -1 $-1 $-1 $406 @10 ASM ENTITY @2 24 #
cone-surface $-1 -1 $-1 27.87620971332509967 1.181373475657307104 103.2070570149435298 -1.057355261547766349e-16 -1 -1.664408122508810091e-32 11.09980000000000189 -1.173643193212789957e-15 3.080813382183580243e-15 1 I I -0 -1 8.392414000000000485 forward I I I I #
straight-curve $-1 -1 $-1 34.22620971332509754 0.590686737828653774 103.2070570149435298 -1.057355261547766349e-15 -10 0 F -2.159068673782869485 F 2.040931326217137798 #
coedge $-1 -1 $-1 $467 $466 $409 $457 reversed $468 $-1 #
edge $-1 -1 $-1 $410 1.473820485666253344 $450 1.948800485666253302 $409 $487 forward @7 tangent #
edge $-1 -1 $-1 $428 -12.00000000852453574 $410 -6.588523504547083576e-09 $467 $488 forward @7 unknown #
point $-1 -1 $-1 34.22620971332509754 -19.81862652434272576 103.2070570149435298 #
DXID-attrib $-1 -1 $-1 $-1 $414 @10 ASM ENTITY @2 19 #
plane-surface $-1 -1 $-1 27.87620971332509612 -19.81862652434272576 109.5570570149435241 -1.057355261547766349e-16 -1 -1.664408122508810091e-32 0 1.664408122508810091e-31 -10 forward_v I I I I #
point $-1 -1 $-1 27.87620971332514586 22.1813734756573524 -23.14294300441657271 #
straight-curve $-1 -1 $-1 38.97600971332513353 0.5906867378286532189 -16.79294300441660681 -1.057355261547766349e-15 -10 -2.881924711485674554e-31 F -2.159068673782869485 F 2.040931326217137354 #
point $-1 -1 $-1 38.97600971332513353 -19.81862652434272221 -16.79294300441659615 #
straight-curve $-1 -1 $-1 27.8762097133251352 0.5906867378286543291 -23.14294300441660823 1.057355261547766349e-15 10 1.232595164407832698e-31 F -2.040931326217137354 F 2.159068673782869485 #
coedge $489 -1 $-1 $456 $424 $445 $482 reversed $468 $-1 #
coedge $-1 -1 $-1 $424 $456 $435 $458 reversed $468 $-1 #
loop $-1 -1 $-1 $-1 $424 $490 #
straight-curve $-1 -1 $-1 19.48800485666256677 -19.81862652434271865 -16.79294300441661036 -10 1.168705024027492198e-15 -2.72559736191891326e-15 F -1.948800485666256632 F -1.473820485666256674 #
face $491 -1 $-1 $406 $427 $5 $-1 $492 forward single #
point $-1 -1 $-1 34.22620971332513307 -19.81862652434272221 -16.79294300441659615 #
DXID-attrib $-1 -1 $-1 $-1 $433 @10 ASM ENTITY @2 18 #
plane-surface $-1 -1 $-1 38.97600971332511222 1.181373475657310657 43.20705708082876839 -1 1.057355261547766349e-16 -2.77555756156289283e-16 -1.057355261547766349e-15 -10 -1.664408122508810091e-31 forward_v I I I I #
straight-curve $-1 -1 $-1 34.22620971332513307 0.590686737828653774 -16.79294300441660681 1.057355261547766349e-15 10 2.881924711485674554e-31 F -2.040931326217137354 F 2.159068673782869485 #
loop $-1 -1 $-1 $-1 $493 $476 #
face $494 -1 $-1 $490 $437 $5 $-1 $495 forward single #
point $-1 -1 $-1 34.22620971332511886 -5.06862649586540126 43.20705699558339319 #
coedge $496 -1 $-1 $478 $478 $497 $498 forward $440 $-1 #
DXID-attrib $-1 -1 $-1 $-1 $441 @10 ASM ENTITY @2 20 #
cone-surface $-1 -1 $-1 38.97600971332511222 6.181373504133986785 43.20705701494351558 -1 0 0 0 0.3036539788159419717 -1.212556910478532535 1 I I 0 -1 1.249999999999998446 forward I I I I #
ATTRIB_CUSTOM-attrib $-1 -1 $-1 $-1 $445 @17 sketch_attrib_def 1 1 3 @13 144 0 1 0 1 1 #
edge $-1 -1 $-1 $450 6.588523504547083576e-09 $419 12.00000000852453574 $466 $499 forward @7 unknown #
straight-curve $-1 -1 $-1 38.97600971332509801 0.5906867378286532189 103.2070570149435298 1.057355261547766349e-15 10 0 F -2.040931326217137798 F 2.159068673782869485 #
loop $-1 -1 $-1 $-1 $497 $433 #
coedge $500 -1 $-1 $485 $485 $493 $501 reversed $447 $-1 #
point $-1 -1 $-1 38.97600971332509801 -19.81862652434272576 103.2070570149435298 #
straight-curve $-1 -1 $-1 19.48800485666256321 -19.81862652434272576 103.2070570149435298 10 -1.168705024027492198e-15 0 F 1.473820485666253344 F 1.948800485666253302 #
straight-curve $-1 -1 $-1 34.22620971332509754 -19.81862652434272576 103.2070570808287613 -2.985440739971939939e-15 -3.700743415417188139e-16 10 I I #
ATTRIB_CUSTOM-attrib $-1 -1 $-1 $-1 $466 @17 sketch_attrib_def 1 1 3 @13 144 0 1 0 1 1 #
face $502 -1 $-1 $470 $468 $5 $-1 $503 forward single #
DXID-attrib $-1 -1 $-1 $-1 $470 @10 ASM ENTITY @2 23 #
cone-surface $-1 -1 $-1 27.87620971332513164 1.181373475657284899 -16.79294300441660681 1.057355261547766349e-16 1 1.664408122508810091e-32 6.350000000000001421 -6.714205910828317601e-16 1.762479051592437191e-15 1 I I -0 -1 8.392414000000000485 forward I I I I #
coedge $504 -1 $-1 $493 $493 $485 $501 forward $475 $-1 #
DXID-attrib $-1 -1 $-1 $-1 $476 @10 ASM ENTITY @2 21 #
cone-surface $-1 -1 $-1 38.97600971332511222 -3.818626495865400816 43.20705699558339319 -1 0 0 0 1.25 -1.055719509501507653e-80 1 I I 0 -1 1.25 forward I I I I #
ATTRIB_CUSTOM-attrib $-1 -1 $505 $-1 $478 @17 sketch_attrib_def 1 1 3 @22 104 0 4294967295 0 1 1 #
coedge $506 -1 $-1 $497 $497 $478 $498 reversed $484 $-1 #
edge $-1 -1 $-1 $507 -3.141592653589793116 $507 3.141592653589793116 $478 $508 forward @7 unknown #
straight-curve $-1 -1 $-1 38.97600971332509801 -19.81862652434272576 103.2070570808287613 2.985440739971939939e-15 3.700743415417188139e-16 -10 F 6.588523504547083576e-09 F 16.99999999999999645 #
ATTRIB_CUSTOM-attrib $-1 -1 $-1 $-1 $485 @17 sketch_attrib_def 1 1 3 @22 127 0 4294967295 0 1 1 #
edge $-1 -1 $-1 $509 -3.141592653589793116 $509 3.141592653589793116 $493 $510 forward @7 unknown #
DXID-attrib $-1 -1 $-1 $-1 $490 @10 ASM ENTITY @2 22 #
plane-surface $-1 -1 $-1 38.97600971332513353 -19.81862652434272221 -16.79294291917120319 -1.168705024027492248e-16 -1 -3.70074341541719196e-17 -2.985440739971939939e-15 -3.700743415417188139e-16 10 forward_v I I I I #
ATTRIB_CUSTOM-attrib $-1 -1 $-1 $-1 $493 @17 sketch_attrib_def 1 1 3 @22 127 0 4294967295 0 1 1 #
ATTRIB_CUSTOM-attrib $-1 -1 $-1 $496 $478 @17 sketch_attrib_def 1 1 3 @22 116 0 4294967295 0 1 1 #
ATTRIB_CUSTOM-attrib $-1 -1 $511 $-1 $497 @17 sketch_attrib_def 1 1 3 @22 116 0 4294967295 0 1 1 #
vertex $-1 -1 $-1 $498 $512 #
ellipse-curve $-1 -1 $-1 38.97600971332511222 6.181373504133986785 43.20705701494351558 1 -4.576890375219183389e-17 2.775557561562892337e-16 5.721112969023979083e-17 1.25 -1.055719509501507653e-80 1 I I #
vertex $-1 -1 $-1 $501 $513 #
ellipse-curve $-1 -1 $-1 38.97600971332511222 -3.818626495865400816 43.20705699558339319 1 -4.576890375219183389e-17 2.775557561562892337e-16 5.721112969023979083e-17 1.25 -1.055719509501507653e-80 1 I I #
ATTRIB_CUSTOM-attrib $-1 -1 $-1 $506 $497 @17 sketch_attrib_def 1 1 3 @22 104 0 4294967295 0 1 1 #
point $-1 -1 $-1 38.97600971332511222 4.931373504133987673 43.20705701494351558 #
point $-1 -1 $-1 38.97600971332511222 -5.06862649586540126 43.20705699558339319 #
End-of-ACIS-data 