700 0 1 0           
30 Autodesk Translation Framework 20 ASM 228.6.0.65535 NT 24 Tue Nov 15 20:01:12 2022 
1 9.999999999999999547e-07 1.000000000000000036e-10 
body $1 -1 $-1 $2 $-1 $3 #
rgb_color-st-attrib $-1 -1 $4 $-1 $0 0.9607843137254902244 0.9607843137254902244 0.9647058823529411908 #
lump $-1 -1 $-1 $-1 $5 $0 #
transform $-1 -1 1 0 0 0 1 0 0 0 1 0 0 0 1 no_rotate no_reflect no_shear #
ATTRIB_CUSTOM-attrib $-1 -1 $-1 $1 $0 @20 Timestamp_attrib_def 1 1668438144599043 #
shell $-1 -1 $-1 $-1 $-1 $6 $-1 $2 #
face $7 -1 $-1 $8 $9 $5 $-1 $10 forward single #
DXID-attrib $-1 -1 $-1 $-1 $6 @10 ASM ENTITY @1 0 #
face $11 -1 $-1 $12 $13 $5 $-1 $14 forward single #
loop $-1 -1 $-1 $-1 $15 $6 #
plane-surface $-1 -1 $-1 105.8627712979572664 4.850795667429510516 98.82195860383531283 0.2912224531089776525 0.9064350905190019514 0.3058838169648704364 0.9356490948099824845 2.912224531089782076 -9.520688475730112899 forward_v I I I I #
DXID-attrib $-1 -1 $-1 $-1 $8 @10 ASM ENTITY @1 1 #
face $16 -1 $-1 $17 $18 $5 $-1 $19 forward single #
loop $-1 -1 $-1 $-1 $20 $8 #
cone-surface $-1 -1 $-1 116.0770939440237015 15.88354144608886642 6.350000000000002309 0.3058838169648698813 0.9520688475730114675 0 -0 -0 -6.350000000000001421 1 I I -0 -1 8.392500000000000071 forward I I I I #
coedge $-1 -1 $-1 $21 $22 $23 $24 forward $9 $-1 #
DXID-attrib $-1 -1 $-1 $-1 $12 @10 ASM ENTITY @1 2 #
face $25 -1 $-1 $26 $27 $5 $-1 $28 reversed single #
loop $-1 -1 $-1 $-1 $29 $12 #
spline-surface $-1 -1 $-1 forward { exactsur full nubs 3 3 open open none none 3 2 
	0 3 0.3388729148867238861 1 0.7907034680690223638 3 
	0 3 0.4750000000000000333 3 
	106.6460072854449237 -0.5177758058654324813 1.387752843809137993 
	105.9349228411198283 -0.652230275081278732 1.895471491060840119 
	104.4944751711462061 -1.036237887384394263 3.368648902521944155 
	103.7737034466206012 -1.651465359188851734 5.265061625529723344 
	103.6327851639231028 -2.090076032813303897 6.350000000000013856 
	105.7054234947645455 -0.2155819458289220392 0.1504471224492108516 
	104.8433769772476865 -0.3015348226625183536 0.7846588692628397865 
	103.1054045774790353 -0.5899527092612942836 2.625307172977155989 
	102.2657252171541842 -1.166977143966851926 4.994414589645415958 
	102.1253428219324917 -1.605759989285593159 6.350000000000015632 
	104.7648397040841672 0.08661191420758822257 -1.0868585989107169 
	103.7518622576068452 0.04915062363497854636 -0.3258435119381727918 
	101.7159088910578788 -0.1435309559372868193 1.881846110331174549 
	100.7593546501151991 -0.6830054438277194384 4.724140586022876676 
	100.6179004799418806 -1.121443945757883087 6.350000000000019185 
	103.824255913403789 0.3888057742440986786 -2.324164320270644346 
	102.6603163937346892 0.3998460760537389524 -1.436656133736172958 
	100.326838297390708 0.3027542221858131599 1.138504380786386827 
	99.25137642064879628 -0.1985172286057196867 4.453493550138568402 
	99.11045813795128367 -0.6371279022301723494 6.350000000000020961 
	0 
	
	0 
	0 
	1 0.3388729148867238861 
	0 
	0 
	0 
	F 1 F 0 F 1 F 0 } I I I I #
coedge $-1 -1 $-1 $30 $31 $32 $33 reversed $13 $-1 #
coedge $-1 -1 $-1 $34 $15 $35 $36 forward $9 $-1 #
coedge $37 -1 $-1 $15 $38 $39 $40 forward $9 $-1 #
coedge $-1 -1 $-1 $41 $35 $15 $24 reversed $42 $43 #
edge $-1 -1 $-1 $44 5.433588103274009762e-16 $45 0.2042500000000004035 $15 $46 forward @7 unknown #
DXID-attrib $-1 -1 $-1 $-1 $17 @10 ASM ENTITY @1 3 #
face $47 -1 $-1 $48 $49 $5 $-1 $50 forward single #
loop $-1 -1 $-1 $51 $52 $17 #
plane-surface $-1 -1 $-1 100.467895971937196 3.587921618462170947 54.01072799963517923 0.9520688475730114675 -0.3058838169648699368 3.963782833514609697e-17 0.9356490948099807081 2.912224531089776747 -9.520688475730114675 forward_v I I I I #
coedge $-1 -1 $-1 $53 $54 $55 $56 reversed $18 $57 #
tcoedge-coedge $58 -1 $-1 $59 $20 $60 $61 reversed $13 $62 -0.8969962938533891927 -0 #
tcoedge-coedge $63 -1 $-1 $20 $64 $41 $65 reversed $13 $66 -0.8969962938533827534 -5.726410874875362677e-16 #
coedge $-1 -1 $-1 $39 $67 $20 $33 forward $49 $-1 #
edge $-1 -1 $-1 $68 1.263596965734200772 $44 4.963596965734204502 $32 $69 forward @7 tangent #
coedge $-1 -1 $-1 $38 $21 $70 $71 reversed $9 $-1 #
coedge $-1 -1 $-1 $23 $72 $21 $36 reversed $42 $73 #
edge $-1 -1 $-1 $45 0.2042500000000004035 $74 0.4750000000000000333 $21 $75 forward @7 unknown #
ATTRIB_CUSTOM-attrib $-1 -1 $-1 $-1 $22 @17 sketch_attrib_def 1 1 3 @13 175 0 1 0 1 1 #
coedge $-1 -1 $-1 $22 $34 $76 $77 reversed $9 $-1 #
coedge $78 -1 $-1 $79 $32 $22 $40 reversed $49 $-1 #
edge $-1 -1 $-1 $80 0 $44 9.712738615443871737 $39 $81 forward @7 unknown #
tcoedge-coedge $82 -1 $-1 $83 $23 $31 $65 forward $42 $84 5.726410874875362677e-16 0.8969962938533827534 #
loop $-1 -1 $-1 $-1 $23 $85 #
pcurve $-1 -1 $-1 0 forward { exppc nubs 1 open 2 
	-0.2042500000000004035 1 -0 1 
	9.712738615443869961 0.2042500000000002369 
	9.712738615443869961 9.860761315262647568e-32 
	2.017598512547191079e-14 
	spline forward { exactsur full nubs 3 3 open open none none 3 2 
	9.712738615443869961 3 10.16456916862616744 1 10.50344208351289055 3 
	0 3 0.4750000000000000333 3 
	114.9504863916232864 33.1364713273881577 6.350000000000002309 
	115.0914046743207848 33.57508200101260343 5.265061625529714462 
	115.8121999931284734 34.19030189236836037 3.368662383399518401 
	117.2526240688200261 34.5743170851201711 1.895471491060838565 
	117.9637085131451215 34.70877155433601757 1.387752843809137993 
	113.4430440496326895 33.62078737091587044 6.350000000000002309 
	113.583426444854382 34.05957021623460435 4.994414589645400859 
	114.4231293994612741 34.63658707049145846 2.625320653854734232 
	116.1610782049478985 34.92501253753893309 0.7846588692628351236 
	117.0231247224647433 35.01096541437252796 0.1504471224492108516 
	111.9356017076420784 34.10510341444357607 6.350000000000001421 
	112.0770558778153969 34.54354191637374072 4.724140586022866017 
	113.0336513623063297 35.0830031534010871 1.881869675329768121 
	115.0695634853070146 35.27569798383643018 -0.325843511938171404 
	116.0825409317843651 35.31315927440903835 -1.0868585989107169 
	110.4281593656514815 34.58941945797128881 6.350000000000001421 
	110.5690776483489799 35.02803013159574164 4.453493550138552415 
	111.6445807686391447 35.5292883315241852 1.13852794578498373 
	113.978017621434887 35.62639343625519217 -1.436656133736174956 
	115.1419571411039868 35.61535313444554873 -2.324164320270644346 
	0 
	
	0 
	0 
	1 10.16456916862616744 
	0 
	0 
	0 
	F 1 F 0 F 1 F 0 } I I I I 
	} 0 0 #
tvertex-vertex $-1 -1 $-1 $24 $86 1.00177635683940019e-11 #
vertex $-1 -1 $-1 $24 $87 #
straight-curve $-1 -1 $-1 114.9504863916232864 33.13647132738814349 6.349999999999997868 -9.520688475730116451 3.058838169648699701 -3.963782833514610683e-16 F 5.433588103274009762e-16 F 0.2042500000000004035 #
DXID-attrib $-1 -1 $-1 $-1 $26 @10 ASM ENTITY @1 4 #
face $88 -1 $-1 $89 $90 $5 $-1 $91 forward single #
loop $-1 -1 $-1 $92 $32 $26 #
plane-surface $-1 -1 $-1 104.9902229979090009 2.134973487879037179 54.01072799963517923 0.9520688475730114675 -0.3058838169648699368 3.963782833514609697e-17 0.9356490948099807081 2.912224531089776747 -9.520688475730114675 forward_v I I I I #
loop $-1 -1 $-1 $93 $94 $17 #
coedge $-1 -1 $-1 $52 $52 $95 $96 forward $27 $-1 #
tcoedge-coedge $-1 -1 $-1 $97 $29 $98 $99 reversed $18 $100 -0.8969962938533889707 -0 #
coedge $-1 -1 $-1 $29 $60 $101 $102 reversed $18 $103 #
coedge $-1 -1 $-1 $101 $104 $29 $56 forward $105 $-1 #
edge $-1 -1 $-1 $106 -0.474999999999998701 $107 -0.204249999999999543 $55 $108 forward @7 unknown #
pcurve $-1 -1 $-1 0 forward { exppc nubs 1 open 2 
	0.204249999999999543 1 0.4750000000000000333 1 
	0.7907034680690221418 0.2042500000000003479 
	0.7907034680690219197 0.4750000000000000333 
	2.262986606686481213e-14 
	spline forward { ref 0 } I I I I 
	} 0 0 #
ATTRIB_CUSTOM-attrib $-1 -1 $-1 $-1 $30 @17 sketch_attrib_def 1 1 3 @13 172 0 1 0 1 1 #
coedge $109 -1 $-1 $110 $30 $111 $112 reversed $13 $-1 #
tcoedge-coedge $113 -1 $-1 $54 $97 $30 $61 forward $18 $114 0 0.8969962938533891927 #
tedge-edge $-1 -1 $-1 $115 0 $68 0.8969962938533891927 $30 $116 forward @7 unknown 0.001363490781759225468 #
pcurve $-1 -1 $-1 0 forward { exppc nubs 3 open 3 
	-0.8969962938533899699 3 -0.3844269830800243204 3 -0 3 
	-2.492539046649167922 1.570796326794898334 
	-2.437645727523460426 1.399939889870443377 
	-2.38275240839775293 1.22904211537984609 
	-2.327859089272045878 1.058242272355421232 
	-2.286689099927765145 0.930142390087102644 
	-2.245519110583484856 0.8019423606348501377 
	-2.204349121239204123 0.6738000329415092526 
	3.754874059998134585e-05 
	cone 116.0770939440237015 15.88354144608886642 6.350000000000002309 0.3058838169648698813 0.9520688475730114675 0 -0 -0 -6.350000000000001421 1 I I -0 -1 8.392500000000000071 forward I I I I 
	} 0 0 #
ATTRIB_CUSTOM-attrib $-1 -1 $-1 $-1 $31 @17 sketch_attrib_def 1 1 3 @13 175 0 1 0 1 1 #
coedge $117 -1 $-1 $31 $110 $118 $119 reversed $13 $-1 #
tedge-edge $-1 -1 $-1 $44 5.726410874875362677e-16 $120 0.8969962938533827534 $31 $121 forward @7 unknown 0.001371517982379320735 #
pcurve $-1 -1 $-1 0 forward { exppc nubs 3 open 3 
	-0.8969962938533877495 3 -0.5125693107733664267 3 -0 3 
	2.204349121239203679 0.6738000329415101408 
	2.16317913189492339 0.8019423606348501377 
	2.122009142550643102 0.9301420840488896502 
	2.080839153206363257 1.058242241135547435 
	2.025945834080656205 1.229042450584426405 
	1.971052514954948487 1.399939889870441156 
	1.916159195829240769 1.570796326794896558 
	3.794631988684182697e-05 
	cone 116.0770939440237015 15.88354144608886642 6.350000000000002309 0.3058838169648698813 0.9520688475730114675 0 -0 -0 -6.350000000000001421 1 I I -0 -1 8.392500000000000071 forward I I I I 
	} 0 0 #
coedge $122 -1 $-1 $32 $123 $124 $125 reversed $49 $-1 #
tvertex-vertex $-1 -1 $-1 $33 $126 1.002935023183045239e-11 #
straight-curve $-1 -1 $-1 99.76764653408302763 -14.12038910244645606 6.350000000000015632 3.058838169648699701 9.520688475730116451 -1.11022302462515654e-15 F 1.263596965734200328 F 4.963596965734204502 #
coedge $-1 -1 $-1 $127 $128 $34 $71 forward $93 $-1 #
edge $-1 -1 $-1 $129 0 $74 9.712738615443871737 $34 $130 forward @7 unknown #
tcoedge-coedge $-1 -1 $-1 $35 $83 $131 $132 reversed $42 $133 -0.8969962938533827534 -0 #
pcurve $-1 -1 $-1 0 forward { exppc nubs 1 open 2 
	-0.4750000000000000333 1 -0.2042500000000004035 1 
	9.712738615443869961 0.4749999999999996447 
	9.712738615443869961 0.2042500000000002369 
	2.017598512547191079e-14 
	spline forward { ref 2 } I I I I 
	} 0 0 #
tvertex-vertex $-1 -1 $-1 $36 $134 1.001913194867290125e-11 #
straight-curve $-1 -1 $-1 114.9504863916232864 33.13647132738814349 6.349999999999997868 -9.520688475730116451 3.058838169648699701 -3.963782833514610683e-16 F 0.2042500000000004035 F 0.4750000000000000333 #
coedge $-1 -1 $-1 $135 $136 $38 $77 forward $137 $-1 #
edge $-1 -1 $-1 $80 0 $129 0.4750000000000004219 $76 $138 forward @7 unknown #
ATTRIB_CUSTOM-attrib $-1 -1 $-1 $-1 $39 @17 sketch_attrib_def 1 1 3 @13 175 0 1 0 1 1 #
coedge $139 -1 $-1 $140 $39 $136 $141 reversed $49 $-1 #
vertex $-1 -1 $-1 $77 $142 #
straight-curve $-1 -1 $-1 105.8627712979572664 4.850795667429510516 98.82195860383531283 0.9356490948099824845 2.912224531089782076 -9.520688475730112899 F 0 F 9.712738615443871737 #
ATTRIB_CUSTOM-attrib $-1 -1 $-1 $-1 $41 @17 sketch_attrib_def 1 1 3 @13 175 0 1 0 1 1 #
coedge $-1 -1 $-1 $72 $41 $143 $144 forward $42 $145 #
pcurve $-1 -1 $-1 0 forward { exppc nubs 1 open 2 
	0 1 0.8969962938533877495 1 
	9.712738615443869961 0 
	10.50344208351289055 0 
	0.01000000000000000021 
	spline forward { ref 2 } I I I I 
	} 0 0 #
face $146 -1 $-1 $147 $42 $5 $-1 $148 forward single #
point $-1 -1 $-1 114.9504863916232864 33.1364713273881577 6.349999999999997868 #
point $-1 -1 $-1 113.0058857704554214 33.7612390235388915 6.349999999999997868 #
DXID-attrib $-1 -1 $-1 $-1 $48 @10 ASM ENTITY @1 5 #
face $149 -1 $-1 $150 $151 $5 $-1 $152 reversed single #
loop $-1 -1 $-1 $-1 $153 $48 #
plane-surface $-1 -1 $-1 110.4182433301735955 -1.72973223401185594 0 -0.3058838169648689376 -0.9520688475730116895 -0 -9.520688475730116451 3.058838169648689487 0 forward_v I I I I #
loop $-1 -1 $-1 $154 $155 $26 #
loop $-1 -1 $-1 $-1 $127 $17 #
coedge $-1 -1 $-1 $94 $94 $156 $157 forward $51 $-1 #
coedge $-1 -1 $-1 $95 $95 $52 $96 reversed $158 $-1 #
edge $-1 -1 $-1 $159 -3.141592653589795781 $159 3.141592653589790451 $95 $160 forward @7 unknown #
coedge $-1 -1 $-1 $60 $53 $161 $162 reversed $18 $163 #
tcoedge-coedge $-1 -1 $-1 $164 $165 $53 $99 forward $166 $167 0 0.8969962938533889707 #
tedge-edge $-1 -1 $-1 $168 0 $106 0.8969962938533889707 $53 $169 forward @7 unknown 0.002383296748907730127 #
pcurve $-1 -1 $-1 0 forward { exppc nubs 1 open 2 
	-0.8969962938533899699 1 -0 1 
	0.7907034680690223638 0.4750000000000000333 
	-0 0.4749999999999998668 
	0.01000000000000000021 
	spline forward { ref 0 } I I I I 
	} 0 0 #
coedge $-1 -1 $-1 $124 $55 $54 $102 forward $105 $-1 #
edge $-1 -1 $-1 $107 -0.204249999999999543 $68 0 $101 $170 forward @7 unknown #
pcurve $-1 -1 $-1 0 forward { exppc nubs 1 open 2 
	-0 1 0.204249999999999543 1 
	0.7907034680690223638 1.41953460380253318e-15 
	0.7907034680690221418 0.2042500000000003479 
	2.262986606686481213e-14 
	spline forward { ref 0 } I I I I 
	} 0 0 #
coedge $-1 -1 $-1 $55 $171 $172 $173 reversed $105 $-1 #
loop $-1 -1 $-1 $-1 $55 $174 #
tvertex-vertex $-1 -1 $-1 $56 $175 1.001528079932285671e-11 #
vertex $-1 -1 $-1 $56 $176 #
straight-curve $-1 -1 $-1 103.6327851639230744 -2.090076032813312779 6.350000000000015632 9.520688475730116451 -3.058838169648699701 3.963782833514610683e-16 F -0.474999999999998701 F -0.204249999999999543 #
ATTRIB_CUSTOM-attrib $-1 -1 $-1 $-1 $59 @17 sketch_attrib_def 1 1 3 @13 156 0 1 0 2 2 #
coedge $-1 -1 $-1 $64 $59 $177 $178 forward $13 $-1 #
coedge $179 -1 $-1 $161 $180 $59 $112 forward $181 $-1 #
edge $-1 -1 $-1 $182 2.502888554377708844e-15 $115 0.6738000329415103629 $59 $183 forward @7 unknown #
ATTRIB_CUSTOM-attrib $-1 -1 $-1 $-1 $60 @17 sketch_attrib_def 1 1 3 @13 172 0 1 0 1 1 #
pcurve $-1 -1 $-1 0 forward { exppc nubs 1 open 2 
	0 1 0.8969962938533899699 1 
	-0 0 
	0.7907034680690223638 8.683768486551940034e-17 
	0.01000000000000000021 
	spline forward { ref 0 } I I I I 
	} 0 0 #
tvertex-vertex $-1 -1 $-1 $61 $184 1.001630478840891436e-11 #
intcurve-curve $-1 -1 $-1 forward { parcur full nubs 3 open 3 
	0 3 0.3844269830800243204 3 0.8969962938533899699 3 
	106.6460072854449237 -0.5177758058654324813 1.387752843809137993 
	105.9349228411198283 -0.652230275081278732 1.895471491060840119 
	105.3175881254168473 -0.8168049660683283086 2.526833238829884642 
	104.8324387874492203 -1.023848610841338491 3.235932084638114326 
	104.1855730034923795 -1.299906803872018735 4.18139721238242057 
	103.7737034466206012 -1.651465359188851512 5.265061625529723344 
	103.6327851639231028 -2.090076032813303453 6.350000000000013856 
	0 
	
	spline forward { ref 0 } I I I I 
	null_surface 
	nubs 1 open 2 
	0 1 0.8969962938533899699 1 
	-0 0 
	0.7907034680690223638 8.683768486551940034e-17 
	
	nullbs 
	I I 
	0 
	0 
	1 0.3844269830800243204 
	surf1 } I I #
ATTRIB_CUSTOM-attrib $-1 -1 $-1 $-1 $64 @17 sketch_attrib_def 1 1 3 @13 162 0 1 0 1 2 #
coedge $185 -1 $-1 $186 $143 $64 $119 forward $187 $-1 #
edge $-1 -1 $-1 $120 -6.883396519468989992e-17 $188 0.6738000329415108069 $64 $189 forward @7 unknown #
tvertex-vertex $-1 -1 $-1 $119 $190 1.003771949027190876e-11 #
intcurve-curve $-1 -1 $-1 forward { parcur full nubs 3 open 3 
	0 3 0.5125693107733664267 3 0.8969962938533877495 3 
	114.9504863916232864 33.1364713273881577 6.350000000000002309 
	115.0914046743207848 33.57508200101260343 5.265061625529710021 
	115.5032877136394802 33.9266362246444757 4.181404915741023132 
	116.1501515715324473 34.2026950364872917 3.235938687516913603 
	116.6352994649521975 34.40973914536940015 2.526839016348837674 
	117.2526240688200261 34.5743170851201711 1.895471491060836122 
	117.9637085131451215 34.70877155433601757 1.387752843809137993 
	0 
	
	spline forward { ref 2 } I I I I 
	null_surface 
	nubs 1 open 2 
	0 1 0.8969962938533877495 1 
	9.712738615443869961 0 
	10.50344208351289055 0 
	
	nullbs 
	I I 
	0 
	0 
	1 0.5125693107733664267 
	surf1 } I I #
ATTRIB_CUSTOM-attrib $-1 -1 $-1 $-1 $67 @17 sketch_attrib_def 1 1 3 @13 172 0 1 0 1 1 #
coedge $191 -1 $-1 $67 $192 $193 $194 reversed $49 $-1 #
coedge $195 -1 $-1 $171 $101 $67 $125 forward $105 $-1 #
edge $-1 -1 $-1 $68 0.7907034680690214756 $196 10.50344208351288877 $67 $197 forward @7 unknown #
point $-1 -1 $-1 103.6327851639231028 -2.090076032813312779 6.350000000000015632 #
coedge $-1 -1 $-1 $172 $70 $164 $198 forward $93 $-1 #
coedge $-1 -1 $-1 $70 $199 $135 $200 forward $93 $-1 #
vertex $-1 -1 $-1 $71 $201 #
straight-curve $-1 -1 $-1 101.3404442719854615 6.303743798012644284 98.82195860383531283 0.9356490948099824845 2.912224531089782076 -9.520688475730112899 F 0 F 9.712738615443871737 #
tcoedge-coedge $-1 -1 $-1 $202 $164 $72 $132 forward $166 $203 0 0.8969962938533827534 #
tedge-edge $-1 -1 $-1 $74 0 $204 0.8969962938533827534 $72 $205 forward @7 unknown 0.002397326192833425414 #
pcurve $-1 -1 $-1 0 forward { exppc nubs 1 open 2 
	-0.8969962938533877495 1 -0 1 
	10.50344208351289055 0.4750000000000000333 
	9.712738615443869961 0.4750000000000000333 
	0.01000000000000000021 
	spline forward { ref 2 } I I I I 
	} 0 0 #
point $-1 -1 $-1 110.4281593656514815 34.58941945797128881 6.349999999999997868 #
coedge $-1 -1 $-1 $206 $76 $128 $200 reversed $137 $-1 #
coedge $207 -1 $-1 $76 $206 $79 $141 forward $137 $-1 #
loop $-1 -1 $-1 $-1 $136 $147 #
straight-curve $-1 -1 $-1 105.8627712979572664 4.850795667429510516 98.82195860383531283 -9.520688475730116451 3.058838169648699701 -3.963782833514610683e-16 F 0 F 0.4750000000000004219 #
ATTRIB_CUSTOM-attrib $-1 -1 $-1 $-1 $79 @17 sketch_attrib_def 1 1 3 @13 169 0 1 0 1 1 #
coedge $208 -1 $-1 $209 $79 $210 $211 reversed $49 $-1 #
edge $-1 -1 $-1 $212 0 $80 0.6999999999999991784 $79 $213 forward @7 unknown #
point $-1 -1 $-1 105.8627712979572664 4.850795667429510516 98.82195860383531283 #
coedge $-1 -1 $-1 $118 $214 $83 $144 reversed $187 $-1 #
edge $-1 -1 $-1 $120 5.165533801212632694e-16 $204 0.4750000000000006439 $83 $215 forward @7 unknown #
pcurve $-1 -1 $-1 0 forward { exppc nubs 1 open 2 
	5.165533801212632694e-16 1 0.4750000000000006439 1 
	10.50344208351289055 0 
	10.50344208351289055 0.4749999999999995892 
	1.798007663106660611e-14 
	spline forward { ref 2 } I I I I 
	} 0 0 #
DXID-attrib $-1 -1 $-1 $-1 $85 @10 ASM ENTITY @2 18 #
face $216 -1 $-1 $217 $137 $5 $-1 $218 forward single #
spline-surface $-1 -1 $-1 forward { ref 2 } I I I I #
DXID-attrib $-1 -1 $-1 $-1 $89 @10 ASM ENTITY @1 6 #
face $219 -1 $-1 $220 $187 $5 $-1 $221 forward single #
loop $-1 -1 $-1 $222 $223 $89 #
plane-surface $-1 -1 $-1 53.10852960732117367 18.80369492054523306 -4.75 0 0 1 10 0 0 forward_v I I I I #
coedge $-1 -1 $-1 $224 $225 $180 $226 reversed $90 $-1 #
loop $-1 -1 $-1 $-1 $227 $26 #
coedge $228 -1 $-1 $155 $155 $229 $230 forward $92 $-1 #
coedge $-1 -1 $-1 $156 $156 $94 $157 reversed $231 $-1 #
edge $-1 -1 $-1 $232 -3.141592653589793116 $232 3.141592653589793116 $156 $233 forward @7 unknown #
loop $-1 -1 $-1 $234 $95 $235 #
vertex $-1 -1 $-1 $96 $236 #
ellipse-curve $-1 -1 $-1 99.81102518716112115 1.543399560147591387 103.8219586038353839 0.9520688475730114675 -0.3058838169648699368 3.963782833514609697e-17 -0.233912273702495177 -0.7280561327724441867 2.380172118932528669 1 I I #
coedge $-1 -1 $-1 $237 $111 $97 $162 forward $181 $-1 #
edge $-1 -1 $-1 $115 3.470362864052788805e-16 $168 0.4750000000000004774 $97 $238 forward @7 unknown #
pcurve $-1 -1 $-1 0 forward { exppc nubs 1 open 2 
	-0.4750000000000004774 1 -3.470362864052788805e-16 1 
	1.303543118080273369e-16 0.4749999999999998113 
	2.078406331938317382e-16 0 
	1.820027215579373905e-14 
	spline forward { ref 0 } I I I I 
	} 0 0 #
coedge $-1 -1 $-1 $131 $98 $127 $198 reversed $166 $-1 #
coedge $-1 -1 $-1 $98 $239 $237 $240 forward $166 $-1 #
loop $-1 -1 $-1 $-1 $164 $241 #
pcurve $-1 -1 $-1 0 forward { exppc nubs 3 open 3 
	0 3 0.3844269830800243204 3 0.8969962938533899699 3 
	-2.204349121239204123 0.6738000329415089196 
	-2.245519110583484856 0.8019423606348505817 
	-2.286689099927765145 0.9301423900871029771 
	-2.327859089272045878 1.05824227235542212 
	-2.382752408397753818 1.229042115379847644 
	-2.437645727523460426 1.399939889870442933 
	-2.492539046649167922 1.570796326794898112 
	3.964135933617809072e-05 
	cone 116.0770939440237015 15.88354144608886642 6.350000000000002309 0.3058838169648698813 0.9520688475730114675 0 -0 -0 -11.1000000000000032 1 I I 0 1 8.392500000000000071 forward I I I I 
	} 0 0 #
tvertex-vertex $-1 -1 $-1 $99 $242 1.000924089784545702e-11 #
intcurve-curve $-1 -1 $-1 forward { parcur full nubs 3 open 3 
	0 3 0.3844269830800243204 3 0.8969962938533899699 3 
	103.824255913403789 0.388805774244098401 -2.324164320270643014 
	102.6603163937346892 0.3998460760537386749 -1.43665613373617207 
	101.6602543524444258 0.3582352815389133749 -0.3330159132265042565 
	100.8912565147545308 0.2423874182013847078 0.9065112030681971023 
	99.86592606450130916 0.08792360041801283721 2.559214024794465026 
	99.25137642064879628 -0.1985172286057199642 4.453493550138567514 
	99.11045813795128367 -0.6371279022301724604 6.350000000000019185 
	0 
	
	spline forward { ref 0 } I I I I 
	null_surface 
	nubs 1 open 2 
	0 1 0.8969962938533899699 1 
	-0 0.4749999999999998668 
	0.7907034680690223638 0.4750000000000000333 
	
	nullbs 
	I I 
	0 
	0 
	1 0.3844269830800243204 
	surf1 } I I #
straight-curve $-1 -1 $-1 103.6327851639230744 -2.090076032813312779 6.350000000000015632 9.520688475730116451 -3.058838169648699701 3.963782833514610683e-16 F -0.204249999999999543 F 0 #
coedge $-1 -1 $-1 $104 $124 $243 $244 forward $105 $-1 #
coedge $-1 -1 $-1 $245 $127 $104 $173 forward $93 $-1 #
edge $-1 -1 $-1 $106 0.7907034680690214756 $246 10.50344208351289055 $104 $247 forward @7 unknown #
face $248 -1 $-1 $249 $105 $5 $-1 $250 forward single #
point $-1 -1 $-1 99.11045813795128367 -0.6371279022301790107 6.350000000000015632 #
point $-1 -1 $-1 101.6881845427552093 -1.465308336662567212 6.350000000000015632 #
coedge $-1 -1 $-1 $251 $252 $110 $178 reversed $253 $-1 #
edge $-1 -1 $-1 $182 1.505460360634513606 $188 5.205460360634516448 $110 $254 forward @7 tangent #
ATTRIB_CUSTOM-attrib $-1 -1 $-1 $-1 $111 @17 sketch_attrib_def 1 1 3 @13 156 0 1 0 2 2 #
coedge $-1 -1 $-1 $111 $237 $153 $226 forward $181 $-1 #
loop $-1 -1 $-1 $-1 $180 $255 #
vertex $-1 -1 $-1 $112 $256 #
ellipse-curve $-1 -1 $-1 110.4182433301736097 -1.72973223401185372 6.350000000000002309 0.3058838169648698813 0.9520688475730114675 0 0 0 -6.350000000000001421 1 F 2.502888554377708844e-15 F 0.6738000329415103629 #
point $-1 -1 $-1 106.6460072854449237 -0.5177758058654324813 1.387752843809137993 #
ATTRIB_CUSTOM-attrib $-1 -1 $-1 $-1 $118 @17 sketch_attrib_def 1 1 3 @13 162 0 1 0 1 2 #
coedge $-1 -1 $-1 $214 $118 $257 $258 forward $187 $-1 #
loop $-1 -1 $-1 $-1 $186 $150 #
vertex $-1 -1 $-1 $178 $259 #
ellipse-curve $-1 -1 $-1 121.7359445578738075 33.49681512618958834 6.350000000000002309 -0.3058838169648698813 -0.9520688475730114675 0 -3.772236044728689563 1.211956428146425679 -4.962247156190864317 1 F -6.883396519468989992e-17 F 0.6738000329415108069 #
point $-1 -1 $-1 117.9637085131451215 34.70877155433601757 1.387752843809137993 #
ATTRIB_CUSTOM-attrib $-1 -1 $-1 $-1 $123 @17 sketch_attrib_def 1 1 3 @13 174 0 1 0 1 1 #
coedge $260 -1 $-1 $123 $209 $261 $262 reversed $49 $-1 #
coedge $263 -1 $-1 $264 $243 $123 $194 forward $265 $-1 #
edge $-1 -1 $-1 $196 0 $266 0.7000000000000002887 $123 $267 forward @7 unknown #
ATTRIB_CUSTOM-attrib $-1 -1 $-1 $-1 $124 @17 sketch_attrib_def 1 1 3 @13 172 0 1 0 1 1 #
vertex $-1 -1 $-1 $194 $268 #
straight-curve $-1 -1 $-1 104.3726061480849694 0.2126300037150619104 -1.178041396164548615 -0.9356490948099820404 -2.912224531089780299 9.520688475730112899 F 0.7907034680690214756 F 10.50344208351288877 #
edge $-1 -1 $-1 $74 -4.963596965734204502 $106 -1.26359696573420055 $127 $269 forward @7 tangent #
coedge $-1 -1 $-1 $128 $270 $271 $272 forward $93 $-1 #
edge $-1 -1 $-1 $273 0 $129 0.6999999999999991784 $135 $274 forward @7 unknown #
point $-1 -1 $-1 101.3404442719854615 6.303743798012644284 98.82195860383531283 #
coedge $-1 -1 $-1 $239 $131 $214 $275 forward $166 $-1 #
pcurve $-1 -1 $-1 0 forward { exppc nubs 3 open 3 
	0 3 0.5125693107733664267 3 0.8969962938533877495 3 
	1.916159195829240103 1.570796326794896558 
	1.971052514954947821 1.399939889870441156 
	2.025945834080654873 1.229042450584427293 
	2.080839153206363257 1.058242241135546102 
	2.12200914255064399 0.9301420840488865416 
	2.16317913189492339 0.8019423606348504707 
	2.204349121239203679 0.6738000329415095857 
	4.006110158585766084e-05 
	cone 116.0770939440237015 15.88354144608886642 6.350000000000002309 0.3058838169648698813 0.9520688475730114675 0 -0 -0 -11.1000000000000032 1 I I 0 1 8.392500000000000071 forward I I I I 
	} 0 0 #
tvertex-vertex $-1 -1 $-1 $275 $276 1.007052494599372823e-11 #
intcurve-curve $-1 -1 $-1 forward { parcur full nubs 3 open 3 
	0 3 0.5125693107733664267 3 0.8969962938533877495 3 
	110.4281593656514815 34.58941945797128881 6.350000000000001421 
	110.5690776483489799 35.02803013159574164 4.453493550138545309 
	111.1836508599433841 35.31446338869770329 2.559227490507927083 
	112.2089779433763255 35.46892828818418764 0.9065227451083035515 
	112.9779732559509995 35.58477696279904023 -0.3330058139414037166 
	113.978017621434887 35.62639343625519217 -1.436656133736179619 
	115.1419571411039868 35.61535313444554873 -2.324164320270644346 
	0 
	
	spline forward { ref 2 } I I I I 
	null_surface 
	nubs 1 open 2 
	0 1 0.8969962938533877495 1 
	9.712738615443869961 0.4750000000000000333 
	10.50344208351289055 0.4750000000000000333 
	
	nullbs 
	I I 
	0 
	0 
	1 0.5125693107733664267 
	surf1 } I I #
coedge $-1 -1 $-1 $136 $135 $277 $278 reversed $137 $-1 #
ATTRIB_CUSTOM-attrib $-1 -1 $-1 $-1 $136 @17 sketch_attrib_def 1 1 3 @13 169 0 1 0 1 1 #
ATTRIB_CUSTOM-attrib $-1 -1 $-1 $-1 $140 @17 sketch_attrib_def 1 1 3 @13 171 0 1 0 1 1 #
coedge $279 -1 $-1 $192 $140 $280 $281 reversed $49 $-1 #
coedge $282 -1 $-1 $277 $283 $140 $211 forward $284 $-1 #
edge $-1 -1 $-1 $285 0 $212 1.570796326794897224 $140 $286 forward @7 unknown #
vertex $-1 -1 $-1 $141 $287 #
straight-curve $-1 -1 $-1 105.8627712979572664 4.850795667429510516 105.8219586038352986 2.775557561562891351e-16 0 -10.00000000000000178 F 0 F 0.7000000000000006217 #
coedge $-1 -1 $-1 $143 $186 $202 $275 reversed $187 $-1 #
straight-curve $-1 -1 $-1 117.9637085131451215 34.70877155433601047 1.387752843809142433 -5.940529204297126498 1.908592800230591857 -7.814562450694273466 F 5.165533801212632694e-16 F 0.4750000000000006439 #
DXID-attrib $-1 -1 $-1 $-1 $147 @10 ASM ENTITY @2 19 #
face $288 -1 $-1 $289 $284 $5 $-1 $290 forward single #
plane-surface $-1 -1 $-1 105.8627712979572664 4.850795667429510516 105.8219586038352986 0.3058838169648699923 0.9520688475730114675 0 2.775557561562891351e-16 0 -10.00000000000000178 forward_v I I I I #
DXID-attrib $-1 -1 $-1 $-1 $150 @10 ASM ENTITY @1 7 #
face $291 -1 $-1 $292 $293 $5 $-1 $294 forward single #
plane-surface $-1 -1 $-1 121.7359445578738075 33.49681512618959545 1.11022302462515654e-15 0.3058838169648698813 0.9520688475730114675 0 0 0 10 forward_v I I I I #
loop $-1 -1 $-1 $295 $296 $89 #
coedge $-1 -1 $-1 $297 $298 $239 $299 reversed $151 $-1 #
coedge $-1 -1 $-1 $300 $153 $298 $301 reversed $90 $-1 #
coedge $302 -1 $-1 $153 $300 $251 $303 forward $90 $-1 #
edge $-1 -1 $-1 $304 -0.4750000000000000333 $182 0 $180 $305 forward @7 tangent #
coedge $306 -1 $-1 $227 $227 $307 $308 forward $154 $-1 #
ATTRIB_CUSTOM-attrib $-1 -1 $-1 $-1 $155 @17 sketch_attrib_def 1 1 3 @22 187 0 4294967295 0 1 1 #
coedge $309 -1 $-1 $229 $229 $155 $230 reversed $234 $-1 #
edge $-1 -1 $-1 $310 -3.141592653589790451 $310 3.141592653589795781 $155 $311 forward @7 unknown #
loop $-1 -1 $-1 $312 $156 $313 #
vertex $-1 -1 $-1 $157 $314 #
ellipse-curve $-1 -1 $-1 91.55216212910960394 -24.16245932432374133 103.821958603835327 0.9520688475730114675 -0.3058838169648699368 3.963782833514609697e-17 -0.233912273702495177 -0.7280561327724441867 2.380172118932528669 1 I I #
loop $-1 -1 $-1 $-1 $229 $235 #
face $315 -1 $-1 $313 $158 $5 $-1 $316 forward single #
point $-1 -1 $-1 100.0449374608636077 2.271455692920034686 101.4417864849028348 #
coedge $-1 -1 $-1 $180 $161 $165 $240 reversed $181 $-1 #
straight-curve $-1 -1 $-1 106.6460072854449237 -0.5177758058654324813 1.387752843809142433 -5.940529204297126498 1.908592800230591857 -7.814562450694273466 F 3.470362864052788805e-16 F 0.4750000000000004774 #
coedge $-1 -1 $-1 $165 $202 $223 $299 forward $166 $-1 #
edge $-1 -1 $-1 $304 1.431832641468329241e-15 $168 0.6738000329415096967 $237 $317 forward @7 unknown #
face $318 -1 $-1 $-1 $166 $5 $-1 $319 reversed single #
point $-1 -1 $-1 103.824255913403789 0.3888057742440986786 -2.324164320270644346 #
coedge $-1 -1 $-1 $193 $320 $171 $244 reversed $265 $-1 #
edge $-1 -1 $-1 $196 0 $246 0.4750000000000004219 $171 $321 forward @7 unknown #
coedge $-1 -1 $-1 $322 $172 $320 $323 forward $93 $-1 #
vertex $-1 -1 $-1 $173 $324 #
straight-curve $-1 -1 $-1 99.85027912211316448 1.665578134298195678 -1.178041396164548615 -0.9356490948099820404 -2.912224531089780299 9.520688475730112899 F 0.7907034680690214756 F 10.50344208351289055 #
DXID-attrib $-1 -1 $-1 $-1 $174 @10 ASM ENTITY @2 24 #
face $325 -1 $-1 $241 $253 $5 $-1 $326 forward single #
plane-surface $-1 -1 $-1 104.3726061480849694 0.2126300037150619104 -1.178041396164548615 -0.291222453108977597 -0.9064350905190018404 -0.3058838169648702143 -0.9356490948099820404 -2.912224531089780299 9.520688475730112899 forward_v I I I I #
coedge $327 -1 $-1 $328 $177 $225 $303 reversed $253 $-1 #
coedge $329 -1 $-1 $177 $330 $331 $332 reversed $253 $-1 #
loop $-1 -1 $-1 $333 $177 $249 #
straight-curve $-1 -1 $-1 105.8132837161716395 -16.06275134017337436 0 3.058838169648699257 9.520688475730112899 0 F 1.505460360634513606 F 5.205460360634516448 #
face $334 -1 $-1 $235 $181 $5 $-1 $335 forward single #
point $-1 -1 $-1 110.4182433301735955 -1.729732234011857051 0 #
coedge $-1 -1 $-1 $331 $336 $186 $258 reversed $337 $-1 #
edge $-1 -1 $-1 $188 0 $338 0.4750000000000000333 $186 $339 forward @7 tangent #
point $-1 -1 $-1 121.7359445578738075 33.49681512618958834 0 #
ATTRIB_CUSTOM-attrib $-1 -1 $-1 $-1 $192 @17 sketch_attrib_def 1 1 3 @13 177 0 1 0 1 1 #
coedge $340 -1 $-1 $341 $342 $192 $262 forward $343 $-1 #
edge $-1 -1 $-1 $266 1.221245327087673378e-15 $344 1.570796326794898112 $192 $345 forward @7 unknown #
ATTRIB_CUSTOM-attrib $-1 -1 $-1 $-1 $193 @17 sketch_attrib_def 1 1 3 @13 174 0 1 0 1 1 #
coedge $-1 -1 $-1 $320 $193 $342 $346 forward $265 $-1 #
loop $-1 -1 $-1 $-1 $193 $347 #
vertex $-1 -1 $-1 $262 $348 #
straight-curve $-1 -1 $-1 94.54507007025708276 -30.37575169277192799 98.82195860383529862 -1.387778780781445676e-16 5.551115123125782702e-16 10.00000000000000178 F 0 F 0.7000000000000002887 #
point $-1 -1 $-1 94.54507007025708276 -30.37575169277192799 98.82195860383529862 #
straight-curve $-1 -1 $-1 95.24531950811123693 -12.66744097186332496 6.350000000000015632 -3.058838169648699701 -9.520688475730116451 1.11022302462515654e-15 F -4.963596965734204502 F -1.263596965734200328 #
coedge $-1 -1 $-1 $199 $322 $349 $350 forward $93 $-1 #
coedge $-1 -1 $-1 $283 $277 $199 $272 reversed $284 $-1 #
edge $-1 -1 $-1 $351 -5.15345513603219118e-16 $273 1.570796326794897668 $271 $352 forward @7 unknown #
vertex $-1 -1 $-1 $272 $353 #
straight-curve $-1 -1 $-1 101.3404442719854615 6.303743798012644284 105.8219586038352986 2.775557561562891351e-16 0 -10.00000000000000178 F 0 F 0.6999999999999991784 #
edge $-1 -1 $-1 $204 0 $338 0.6738000329415099188 $214 $354 forward @7 unknown #
point $-1 -1 $-1 115.1419571411039868 35.61535313444554873 -2.324164320270644346 #
coedge $-1 -1 $-1 $271 $210 $206 $278 forward $284 $-1 #
edge $-1 -1 $-1 $212 0 $273 0.4750000000000004219 $277 $355 forward @7 tangent #
ATTRIB_CUSTOM-attrib $-1 -1 $-1 $-1 $209 @17 sketch_attrib_def 1 1 3 @13 159 0 1 0 1 1 #
coedge $356 -1 $-1 $357 $358 $209 $281 forward $359 $-1 #
edge $-1 -1 $-1 $344 0 $285 2.700000000000000178 $209 $360 forward @7 unknown #
ATTRIB_CUSTOM-attrib $-1 -1 $-1 $-1 $210 @17 sketch_attrib_def 1 1 3 @13 171 0 1 0 1 1 #
coedge $-1 -1 $-1 $210 $271 $357 $361 reversed $284 $-1 #
loop $-1 -1 $-1 $-1 $210 $217 #
vertex $-1 -1 $-1 $211 $362 #
ellipse-curve $-1 -1 $-1 104.3333522131329261 0.0904514295644531785 105.8219586038352986 -0.9520688475730114675 0.3058838169648699368 -3.963782833514609697e-17 -1.942890293094023946e-15 -5.551115123125782702e-15 5.000000000000000888 1 F 0 F 1.570796326794897224 #
point $-1 -1 $-1 105.8627712979572664 4.850795667429510516 105.8219586038352986 #
DXID-attrib $-1 -1 $-1 $-1 $217 @10 ASM ENTITY @2 20 #
face $363 -1 $-1 $364 $359 $5 $-1 $365 forward single #
cone-surface $-1 -1 $-1 104.3333522131329261 0.0904514295644531785 105.8219586038352986 -0.9520688475730114675 0.3058838169648699368 -3.963782833514609697e-17 -1.942890293094023946e-15 -5.551115123125782702e-15 5.000000000000000888 1 I I 0 1 5 forward I I I I #
DXID-attrib $-1 -1 $-1 $-1 $220 @10 ASM ENTITY @1 8 #
face $366 -1 $-1 $367 $368 $5 $-1 $369 forward single #
loop $-1 -1 $-1 $370 $371 $220 #
cone-surface $-1 -1 $-1 140.8846279045989718 21.56776988865286881 0 0 0 -1 -2.5 0 0 1 I I 0 -1 2.5 forward I I I I #
loop $-1 -1 $-1 $372 $373 $89 #
coedge $-1 -1 $-1 $296 $296 $371 $374 forward $222 $-1 #
coedge $-1 -1 $-1 $375 $223 $336 $376 forward $151 $-1 #
coedge $-1 -1 $-1 $223 $377 $224 $301 forward $151 $-1 #
edge $-1 -1 $-1 $338 -5.205460360634516448 $304 -1.505460360634513606 $239 $378 forward @7 tangent #
coedge $-1 -1 $-1 $225 $224 $379 $380 reversed $90 $-1 #
edge $-1 -1 $-1 $381 0 $304 2.465486677646157698 $224 $382 forward @7 unknown #
ATTRIB_CUSTOM-attrib $-1 -1 $-1 $-1 $225 @17 sketch_attrib_def 1 1 3 @13 156 0 1 0 2 2 #
edge $-1 -1 $-1 $383 0 $182 2.465486677646157698 $251 $384 forward @7 unknown #
vertex $-1 -1 $-1 $226 $385 #
straight-curve $-1 -1 $-1 110.4182433301735955 -1.729732234011858161 0 0 0 10 F -0.4750000000000000333 F 0 #
ATTRIB_CUSTOM-attrib $-1 -1 $-1 $-1 $227 @17 sketch_attrib_def 1 1 3 @22 179 0 4294967295 0 1 1 #
coedge $386 -1 $-1 $307 $307 $227 $308 reversed $312 $-1 #
edge $-1 -1 $-1 $387 -3.141592653589792672 $387 3.14159265358979356 $227 $388 forward @7 unknown #
ATTRIB_CUSTOM-attrib $-1 -1 $-1 $-1 $229 @17 sketch_attrib_def 1 1 3 @22 187 0 4294967295 0 1 1 #
vertex $-1 -1 $-1 $230 $389 #
ellipse-curve $-1 -1 $-1 104.3333522131329261 0.09045142956445761939 103.8219586038353839 -0.9520688475730114675 0.3058838169648699368 -3.963782833514609697e-17 -0.233912273702495177 -0.7280561327724441867 2.380172118932528669 1 I I #
loop $-1 -1 $-1 $-1 $307 $313 #
face $390 -1 $-1 $85 $231 $5 $-1 $391 forward single #
point $-1 -1 $-1 91.78607440281211893 -23.43440319155130069 101.4417864849028064 #
DXID-attrib $-1 -1 $-1 $-1 $235 @10 ASM ENTITY @2 16 #
cone-surface $-1 -1 $-1 104.3333522131329261 0.09045142956445761939 103.8219586038353839 -0.9520688475730114675 0.3058838169648699368 -3.963782833514609697e-17 -0.233912273702495177 -0.7280561327724441867 2.380172118932528669 1 I I 0 -1 2.5 forward I I I I #
ellipse-curve $-1 -1 $-1 110.4182433301736097 -1.72973223401185372 6.350000000000002309 0.3058838169648698813 0.9520688475730114675 0 0 0 -11.1000000000000032 1 F 1.431832641468329241e-15 F 0.6738000329415096967 #
DXID-attrib $-1 -1 $-1 $-1 $241 @10 ASM ENTITY @2 26 #
cone-surface $-1 -1 $-1 116.0770939440237015 15.88354144608886642 6.350000000000002309 0.3058838169648698813 0.9520688475730114675 0 -0 -0 -11.1000000000000032 1 I I -0 -1 8.392500000000000071 forward I I I I #
coedge $-1 -1 $-1 $243 $264 $245 $323 reversed $265 $-1 #
straight-curve $-1 -1 $-1 94.54507007025708276 -30.37575169277192799 98.82195860383529862 -9.520688475730116451 3.058838169648699701 -3.963782833514610683e-16 F 0 F 0.4750000000000004219 #
coedge $-1 -1 $-1 $270 $245 $392 $393 forward $93 $-1 #
edge $-1 -1 $-1 $246 0 $394 0.7000000000000009548 $320 $395 forward @7 unknown #
point $-1 -1 $-1 90.02274304428526364 -28.92280356218879334 98.82195860383529862 #
DXID-attrib $-1 -1 $-1 $-1 $249 @10 ASM ENTITY @2 25 #
plane-surface $-1 -1 $-1 53.10852960732117367 18.80369492054523306 0 0 0 1 10 0 0 forward_v I I I I #
ATTRIB_CUSTOM-attrib $-1 -1 $-1 $-1 $251 @17 sketch_attrib_def 1 1 3 @13 156 0 1 0 2 2 #
coedge $396 -1 $-1 $397 $251 $398 $399 reversed $253 $-1 #
ATTRIB_CUSTOM-attrib $-1 -1 $-1 $-1 $252 @17 sketch_attrib_def 1 1 3 @13 162 0 1 0 1 2 #
coedge $400 -1 $-1 $252 $397 $401 $402 reversed $253 $-1 #
coedge $403 -1 $-1 $404 $257 $252 $332 forward $337 $-1 #
edge $-1 -1 $-1 $188 0.5654866776461620059 $405 3.030973355292311044 $252 $406 forward @7 unknown #
loop $-1 -1 $-1 $407 $408 $249 #
DXID-attrib $-1 -1 $-1 $-1 $255 @10 ASM ENTITY @2 15 #
plane-surface $-1 -1 $-1 110.4182433301736097 -1.72973223401185372 -4.750000000000000888 -0.3058838169648698813 -0.9520688475730114675 0 0 0 -10 forward_v I I I I #
coedge $-1 -1 $-1 $257 $404 $297 $376 reversed $337 $-1 #
loop $-1 -1 $-1 $-1 $257 $409 #
vertex $-1 -1 $-1 $299 $410 #
straight-curve $-1 -1 $-1 121.7359445578738075 33.49681512618958834 0 0 0 -10 F 0 F 0.4750000000000000333 #
ATTRIB_CUSTOM-attrib $-1 -1 $-1 $-1 $261 @17 sketch_attrib_def 1 1 3 @13 177 0 1 0 1 1 #
coedge $-1 -1 $-1 $392 $261 $358 $411 forward $343 $-1 #
coedge $-1 -1 $-1 $261 $392 $264 $346 reversed $343 $-1 #
loop $-1 -1 $-1 $-1 $261 $364 #
vertex $-1 -1 $-1 $281 $412 #
ellipse-curve $-1 -1 $-1 96.07448915508142306 -25.61540745490687243 105.8219586038352986 -0.9520688475730114675 0.3058838169648699368 -3.963782833514609697e-17 -1.52941908482434874 -4.760344237865054673 -6.106226635438360972e-15 1 F 0 F 1.570796326794898112 #
edge $-1 -1 $-1 $266 0 $394 0.4750000000000004219 $264 $413 forward @7 tangent #
face $414 -1 $-1 $174 $265 $5 $-1 $415 forward single #
point $-1 -1 $-1 94.54507007025708276 -30.37575169277192799 105.8219586038352986 #
coedge $-1 -1 $-1 $358 $357 $270 $350 reversed $359 $-1 #
edge $-1 -1 $-1 $416 0 $351 2.70000000000000151 $349 $417 forward @7 unknown #
vertex $-1 -1 $-1 $350 $418 #
ellipse-curve $-1 -1 $-1 99.81102518716112115 1.543399560147586946 105.8219586038352986 -0.9520688475730114675 0.3058838169648699368 -3.963782833514609697e-17 -1.942890293094023946e-15 -5.551115123125782702e-15 5.000000000000000888 1 F -5.15345513603219118e-16 F 1.570796326794897668 #
point $-1 -1 $-1 101.3404442719854615 6.303743798012644284 105.8219586038352986 #
ellipse-curve $-1 -1 $-1 121.7359445578738075 33.49681512618958834 6.350000000000002309 -0.3058838169648698813 -0.9520688475730114675 0 -6.59398741676982425 2.118538008255956839 -8.674164320270646655 1 F 0 F 0.6738000329415099188 #
straight-curve $-1 -1 $-1 105.8627712979572664 4.850795667429510516 105.8219586038352986 -9.520688475730116451 3.058838169648699701 -3.963782833514610683e-16 F 0 F 0.4750000000000004219 #
ATTRIB_CUSTOM-attrib $-1 -1 $-1 $-1 $280 @17 sketch_attrib_def 1 1 3 @13 159 0 1 0 1 1 #
coedge $-1 -1 $-1 $349 $280 $283 $361 forward $359 $-1 #
coedge $-1 -1 $-1 $280 $349 $341 $411 reversed $359 $-1 #
loop $-1 -1 $-1 $-1 $280 $289 #
straight-curve $-1 -1 $-1 96.07448915508142306 -25.61540745490686888 110.8219586038352986 3.058838169648699701 9.520688475730116451 3.330669073875469621e-15 F 0 F 2.700000000000000178 #
edge $-1 -1 $-1 $285 0 $351 0.474999999999998701 $357 $419 forward @7 tangent #
point $-1 -1 $-1 104.3333522131329119 0.09045142956444429672 110.8219586038352986 #
DXID-attrib $-1 -1 $-1 $-1 $289 @10 ASM ENTITY @2 21 #
face $420 -1 $-1 $347 $343 $5 $-1 $421 forward single #
plane-surface $-1 -1 $-1 96.07448915508142306 -25.61540745490686888 110.8219586038352986 -1.387778780781445429e-16 -3.330669073875469128e-16 1 3.058838169648700145 9.520688475730116451 3.330669073875469621e-15 forward_v I I I I #
DXID-attrib $-1 -1 $-1 $-1 $292 @10 ASM ENTITY @1 9 #
face $422 -1 $-1 $423 $424 $5 $-1 $425 forward single #
loop $-1 -1 $-1 $426 $427 $292 #
cone-surface $-1 -1 $-1 136.9081382840556955 9.190874870203714408 0 0 0 -1 -4.499999999999992895 0 0 1 I I 0 -1 4.499999999999992895 forward I I I I #
loop $-1 -1 $-1 $-1 $428 $220 #
coedge $-1 -1 $-1 $371 $371 $296 $374 reversed $293 $-1 #
loop $-1 -1 $-1 $-1 $429 $89 #
coedge $-1 -1 $-1 $373 $373 $427 $430 forward $295 $-1 #
edge $-1 -1 $-1 $431 -3.141592653589793116 $431 3.141592653589793116 $371 $432 forward @7 unknown #
coedge $-1 -1 $-1 $433 $297 $434 $435 forward $151 $-1 #
edge $-1 -1 $-1 $338 0.5654866776461620059 $436 3.030973355292312821 $336 $437 forward @7 unknown #
coedge $-1 -1 $-1 $298 $433 $438 $439 forward $151 $-1 #
straight-curve $-1 -1 $-1 105.8132837161716395 -16.06275134017337436 -4.75 -3.058838169648699257 -9.520688475730112899 0 F -5.205460360634516448 F -1.505460360634513606 #
coedge $-1 -1 $-1 $438 $398 $300 $380 forward $440 $-1 #
edge $-1 -1 $-1 $383 0 $381 0.4750000000000000333 $379 $441 forward @7 tangent #
vertex $-1 -1 $-1 $301 $442 #
straight-curve $-1 -1 $-1 133.8913739291054981 -9.271256990356256722 -4.75 -9.520688475730116451 3.058838169648689487 0 F 0 F 2.465486677646157698 #
vertex $-1 -1 $-1 $380 $443 #
straight-curve $-1 -1 $-1 133.8913739291054981 -9.271256990356256722 0 -9.520688475730116451 3.058838169648689487 0 F 0 F 2.465486677646157698 #
point $-1 -1 $-1 110.4182433301735955 -1.729732234011857051 -4.75 #
ATTRIB_CUSTOM-attrib $-1 -1 $-1 $-1 $307 @17 sketch_attrib_def 1 1 3 @22 179 0 4294967295 0 1 1 #
vertex $-1 -1 $-1 $308 $444 #
ellipse-curve $-1 -1 $-1 96.07448915508142306 -25.61540745490687243 103.821958603835327 -0.9520688475730114675 0.3058838169648699368 -3.963782833514609697e-17 -0.233912273702495177 -0.7280561327724441867 2.380172118932528669 1 I I #
point $-1 -1 $-1 104.5672644868354126 0.8185075623369009179 101.4417864849028348 #
DXID-attrib $-1 -1 $-1 $-1 $313 @10 ASM ENTITY @2 17 #
cone-surface $-1 -1 $-1 96.07448915508142306 -25.61540745490687243 103.821958603835327 -0.9520688475730114675 0.3058838169648699368 -3.963782833514609697e-17 -0.233912273702495177 -0.7280561327724441867 2.380172118932528669 1 I I 0 -1 2.5 forward I I I I #
coedge $-1 -1 $-1 $342 $341 $322 $393 reversed $343 $-1 #
edge $-1 -1 $-1 $394 1.221245327087673378e-15 $416 1.57079632679489789 $392 $445 forward @7 unknown #
vertex $-1 -1 $-1 $323 $446 #
straight-curve $-1 -1 $-1 90.02274304428526364 -28.92280356218879334 98.82195860383529862 -1.387778780781445676e-16 5.551115123125782702e-16 10.00000000000000178 F 0 F 0.7000000000000009548 #
ATTRIB_CUSTOM-attrib $-1 -1 $-1 $-1 $328 @17 sketch_attrib_def 1 1 3 @13 166 0 1 0 1 1 #
coedge $447 -1 $-1 $330 $328 $448 $449 reversed $253 $-1 #
coedge $450 -1 $-1 $379 $451 $328 $399 forward $440 $-1 #
edge $-1 -1 $-1 $452 0 $383 1.570796326794886566 $328 $453 forward @7 unknown #
ATTRIB_CUSTOM-attrib $-1 -1 $-1 $-1 $330 @17 sketch_attrib_def 1 1 3 @13 164 0 1 0 1 1 #
coedge $454 -1 $-1 $455 $456 $330 $402 forward $457 $-1 #
edge $-1 -1 $-1 $405 0 $458 1.570796326794898778 $330 $459 forward @7 unknown #
ATTRIB_CUSTOM-attrib $-1 -1 $-1 $-1 $331 @17 sketch_attrib_def 1 1 3 @13 162 0 1 0 1 2 #
coedge $-1 -1 $-1 $336 $331 $456 $460 forward $337 $-1 #
vertex $-1 -1 $-1 $402 $461 #
straight-curve $-1 -1 $-1 116.352122062829082 35.22654736020149358 0 9.520688475730114675 -3.058838169648696148 0 F 0.5654866776461620059 F 3.030973355292311044 #
loop $-1 -1 $-1 $462 $463 $249 #
coedge $464 -1 $-1 $408 $408 $428 $465 forward $333 $-1 #
face $466 -1 $-1 $255 $337 $5 $-1 $467 forward single #
point $-1 -1 $-1 121.7359445578738075 33.49681512618958834 -4.75 #
edge $-1 -1 $-1 $344 0 $416 0.4750000000000003109 $341 $468 forward @7 tangent #
point $-1 -1 $-1 96.07448915508142306 -25.61540745490686888 110.8219586038352986 #
straight-curve $-1 -1 $-1 94.54507007025708276 -30.37575169277192799 105.8219586038352986 -9.520688475730116451 3.058838169648699701 -3.963782833514610683e-16 F 0 F 0.4750000000000004219 #
DXID-attrib $-1 -1 $-1 $-1 $347 @10 ASM ENTITY @2 23 #
plane-surface $-1 -1 $-1 94.54507007025708276 -30.37575169277192799 98.82195860383529862 -0.3058838169648699923 -0.9520688475730114675 5.55111512312578147e-17 -1.387778780781445676e-16 5.551115123125782702e-16 10.00000000000000178 forward_v I I I I #
vertex $-1 -1 $-1 $393 $469 #
straight-curve $-1 -1 $-1 91.55216212910960394 -24.16245932432374133 110.8219586038352986 3.058838169648699701 9.520688475730116451 3.330669073875469621e-15 F 0 F 2.70000000000000151 #
point $-1 -1 $-1 99.81102518716112115 1.543399560147578065 110.8219586038352986 #
straight-curve $-1 -1 $-1 104.3333522131329119 0.09045142956444429672 110.8219586038352986 -9.520688475730116451 3.058838169648699701 -3.963782833514610683e-16 F 0 F 0.474999999999998701 #
DXID-attrib $-1 -1 $-1 $-1 $364 @10 ASM ENTITY @2 22 #
cone-surface $-1 -1 $-1 96.07448915508142306 -25.61540745490687243 105.8219586038352986 -0.9520688475730114675 0.3058838169648699368 -3.963782833514609697e-17 -1.52941908482434874 -4.760344237865054673 -6.106226635438360972e-15 1 I I 0 1 4.999999999999996447 forward I I I I #
DXID-attrib $-1 -1 $-1 $-1 $367 @10 ASM ENTITY @2 10 #
face $470 -1 $-1 $471 $440 $5 $-1 $472 forward single #
loop $-1 -1 $-1 $473 $474 $367 #
cone-surface $-1 -1 $-1 132.9316486635123624 -3.186020148245445327 0 0 0 -1 -2.5 0 0 1 I I 0 -1 2.5 forward I I I I #
loop $-1 -1 $-1 $-1 $475 $292 #
coedge $-1 -1 $-1 $427 $427 $373 $430 reversed $368 $-1 #
coedge $476 -1 $-1 $428 $428 $408 $465 reversed $370 $-1 #
coedge $-1 -1 $-1 $429 $429 $474 $477 forward $372 $-1 #
edge $-1 -1 $-1 $478 -3.141592653589793116 $478 3.141592653589793116 $427 $479 forward @7 unknown #
vertex $-1 -1 $-1 $374 $480 #
ellipse-curve $-1 -1 $-1 140.8846279045989718 21.56776988865286881 -4.75 0 0 1 -2.5 0 0 1 I I #
coedge $-1 -1 $-1 $377 $375 $481 $482 forward $151 $-1 #
coedge $-1 -1 $-1 $456 $455 $375 $435 reversed $457 $-1 #
edge $-1 -1 $-1 $436 0 $483 1.570796326794898778 $434 $484 forward @7 unknown #
vertex $-1 -1 $-1 $376 $485 #
straight-curve $-1 -1 $-1 116.352122062829082 35.22654736020149358 -4.75 9.520688475730114675 -3.058838169648696148 0 F 0.5654866776461620059 F 3.030973355292312821 #
coedge $-1 -1 $-1 $451 $379 $377 $439 reversed $440 $-1 #
edge $-1 -1 $-1 $486 0 $381 1.570796326794886566 $438 $487 forward @7 unknown #
loop $-1 -1 $-1 $-1 $398 $423 #
straight-curve $-1 -1 $-1 133.8913739291054981 -9.271256990356262051 0 0 0 -10 F 0 F 0.4750000000000000333 #
point $-1 -1 $-1 133.8913739291054981 -9.271256990356262051 -4.75 #
point $-1 -1 $-1 133.8913739291054981 -9.271256990356262051 0 #
point $-1 -1 $-1 96.30840142878390964 -24.88735132213442824 101.4417864849028064 #
ellipse-curve $-1 -1 $-1 91.55216212910960394 -24.16245932432374133 105.8219586038352986 -0.9520688475730114675 0.3058838169648699368 -3.963782833514609697e-17 -1.52941908482434874 -4.760344237865054673 -6.106226635438360972e-15 1 F 1.221245327087673378e-15 F 1.57079632679489789 #
point $-1 -1 $-1 90.02274304428526364 -28.92280356218879334 105.8219586038352986 #
ATTRIB_CUSTOM-attrib $-1 -1 $-1 $-1 $397 @17 sketch_attrib_def 1 1 3 @13 153 0 1 0 1 1 #
coedge $488 -1 $-1 $489 $490 $397 $449 forward $491 $-1 #
edge $-1 -1 $-1 $458 0 $452 2.700000000000002842 $397 $492 forward @7 unknown #
ATTRIB_CUSTOM-attrib $-1 -1 $-1 $-1 $398 @17 sketch_attrib_def 1 1 3 @13 166 0 1 0 1 1 #
coedge $-1 -1 $-1 $398 $438 $489 $493 reversed $440 $-1 #
vertex $-1 -1 $-1 $399 $494 #
ellipse-curve $-1 -1 $-1 135.4207930139298526 -4.510912752491163857 0 0 0 -1 4.760344237865083983 -1.529419084824392261 0 1 F 0 F 1.570796326794886566 #
ATTRIB_CUSTOM-attrib $-1 -1 $-1 $-1 $401 @17 sketch_attrib_def 1 1 3 @13 164 0 1 0 1 1 #
coedge $-1 -1 $-1 $434 $401 $490 $495 forward $457 $-1 #
coedge $-1 -1 $-1 $401 $434 $404 $460 reversed $457 $-1 #
loop $-1 -1 $-1 $-1 $401 $496 #
vertex $-1 -1 $-1 $449 $497 #
ellipse-curve $-1 -1 $-1 143.6796560719813272 21.19494613198011379 0 0 0 -1 1.529419084824308328 4.760344237865079542 0 1 F 0 F 1.570796326794899667 #
edge $-1 -1 $-1 $405 0 $436 0.4750000000000000333 $404 $498 forward @7 tangent #
point $-1 -1 $-1 145.2090751568056248 25.95529036984519422 0 #
loop $-1 -1 $-1 $-1 $499 $249 #
coedge $500 -1 $-1 $463 $463 $475 $501 forward $407 $-1 #
ATTRIB_CUSTOM-attrib $-1 -1 $-1 $-1 $408 @17 sketch_attrib_def 1 1 3 @22 185 0 4294967295 0 1 1 #
edge $-1 -1 $-1 $502 -3.141592653589793116 $502 3.141592653589793116 $408 $503 forward @7 unknown #
DXID-attrib $-1 -1 $-1 $-1 $409 @10 ASM ENTITY @2 14 #
plane-surface $-1 -1 $-1 116.352122062829082 35.22654736020149358 0 0.3058838169648696037 0.9520688475730114675 0 9.520688475730114675 -3.058838169648696148 0 forward_v I I I I #
straight-curve $-1 -1 $-1 96.07448915508142306 -25.61540745490686888 110.8219586038352986 -9.520688475730116451 3.058838169648699701 -3.963782833514610683e-16 F 0 F 0.4750000000000003109 #
point $-1 -1 $-1 91.55216212910960394 -24.16245932432374133 110.8219586038352986 #
DXID-attrib $-1 -1 $-1 $-1 $423 @10 ASM ENTITY @2 11 #
face $504 -1 $-1 $496 $491 $5 $-1 $505 forward single #
cone-surface $-1 -1 $-1 135.4207930139298526 -4.510912752491163857 0 0 0 -1 4.760344237865083983 -1.529419084824392261 0 1 I I 0 1 5.00000000000003908 forward I I I I #
loop $-1 -1 $-1 $-1 $506 $367 #
coedge $-1 -1 $-1 $474 $474 $429 $477 reversed $424 $-1 #
coedge $507 -1 $-1 $475 $475 $463 $501 reversed $426 $-1 #
ATTRIB_CUSTOM-attrib $-1 -1 $-1 $-1 $428 @17 sketch_attrib_def 1 1 3 @22 185 0 4294967295 0 1 1 #
edge $-1 -1 $-1 $508 -3.141592653589793116 $508 3.141592653589793116 $474 $509 forward @7 unknown #
vertex $-1 -1 $-1 $430 $510 #
ellipse-curve $-1 -1 $-1 136.9081382840556955 9.190874870203714408 -4.75 0 0 1 -4.499999999999992895 0 0 1 I I #
point $-1 -1 $-1 143.3846279045989718 21.56776988865286881 -4.75 #
coedge $-1 -1 $-1 $490 $489 $433 $482 reversed $491 $-1 #
edge $-1 -1 $-1 $483 0 $486 2.700000000000002842 $481 $511 forward @7 unknown #
vertex $-1 -1 $-1 $435 $512 #
ellipse-curve $-1 -1 $-1 143.6796560719813272 21.19494613198011379 -4.75 0 0 -1 1.529419084824308328 4.760344237865079542 0 1 F 0 F 1.570796326794898778 #
point $-1 -1 $-1 145.2090751568056248 25.95529036984519422 -4.75 #
vertex $-1 -1 $-1 $482 $513 #
ellipse-curve $-1 -1 $-1 135.4207930139298526 -4.510912752491163857 -4.75 0 0 -1 4.760344237865083983 -1.529419084824392261 0 1 F 0 F 1.570796326794886566 #
ATTRIB_CUSTOM-attrib $-1 -1 $-1 $-1 $448 @17 sketch_attrib_def 1 1 3 @13 153 0 1 0 1 1 #
coedge $-1 -1 $-1 $481 $448 $451 $493 forward $491 $-1 #
coedge $-1 -1 $-1 $448 $481 $455 $495 reversed $491 $-1 #
loop $-1 -1 $-1 $-1 $448 $471 #
straight-curve $-1 -1 $-1 148.4400003098463685 19.66552704715579125 0 -3.058838169648683269 -9.520688475730118228 0 F 0 F 2.700000000000002842 #
edge $-1 -1 $-1 $452 0 $486 0.4750000000000000333 $489 $514 forward @7 tangent #
point $-1 -1 $-1 140.1811372517949223 -6.040331837315555674 0 #
edge $-1 -1 $-1 $458 0 $483 0.4750000000000000333 $455 $515 forward @7 tangent #
face $516 -1 $-1 $409 $457 $5 $-1 $517 forward single #
point $-1 -1 $-1 148.4400003098463969 19.66552704715579125 0 #
straight-curve $-1 -1 $-1 145.2090751568056248 25.95529036984519422 0 0 0 -10 F 0 F 0.4750000000000000333 #
coedge $518 -1 $-1 $499 $499 $506 $519 forward $462 $-1 #
ATTRIB_CUSTOM-attrib $-1 -1 $-1 $-1 $463 @17 sketch_attrib_def 1 1 3 @22 183 0 4294967295 0 1 1 #
edge $-1 -1 $-1 $520 -3.141592653589793116 $520 3.141592653589793116 $463 $521 forward @7 unknown #
vertex $-1 -1 $-1 $465 $522 #
ellipse-curve $-1 -1 $-1 140.8846279045989718 21.56776988865286881 0 0 0 -1 -2.5 0 0 1 I I #
DXID-attrib $-1 -1 $-1 $-1 $471 @10 ASM ENTITY @2 12 #
plane-surface $-1 -1 $-1 148.4400003098463685 19.66552704715579125 0 0.9520688475730119116 -0.3058838169648683269 0 -3.058838169648683269 -9.520688475730118228 0 forward_v I I I I #
coedge $523 -1 $-1 $506 $506 $499 $519 reversed $473 $-1 #
ATTRIB_CUSTOM-attrib $-1 -1 $-1 $-1 $475 @17 sketch_attrib_def 1 1 3 @22 183 0 4294967295 0 1 1 #
vertex $-1 -1 $-1 $477 $524 #
ellipse-curve $-1 -1 $-1 132.9316486635123624 -3.186020148245445327 -4.75 0 0 1 -2.5 0 0 1 I I #
point $-1 -1 $-1 141.4081382840556955 9.190874870203716185 -4.75 #
straight-curve $-1 -1 $-1 148.4400003098463685 19.66552704715579125 -4.75 -3.058838169648683269 -9.520688475730118228 0 F 0 F 2.700000000000002842 #
point $-1 -1 $-1 148.4400003098463969 19.66552704715579125 -4.75 #
point $-1 -1 $-1 140.1811372517949223 -6.040331837315555674 -4.75 #
straight-curve $-1 -1 $-1 140.1811372517949223 -6.040331837315555674 0 0 0 -10 F 0 F 0.4750000000000000333 #
straight-curve $-1 -1 $-1 148.4400003098463969 19.66552704715579125 0 0 0 -10 F 0 F 0.4750000000000000333 #
DXID-attrib $-1 -1 $-1 $-1 $496 @10 ASM ENTITY @2 13 #
cone-surface $-1 -1 $-1 143.6796560719813272 21.19494613198011379 0 0 0 -1 1.529419084824308328 4.760344237865079542 0 1 I I 0 1 5.000000000000008882 forward I I I I #
ATTRIB_CUSTOM-attrib $-1 -1 $-1 $-1 $499 @17 sketch_attrib_def 1 1 3 @22 181 0 4294967295 0 1 1 #
edge $-1 -1 $-1 $525 -3.141592653589793116 $525 3.141592653589793116 $499 $526 forward @7 unknown #
vertex $-1 -1 $-1 $501 $527 #
ellipse-curve $-1 -1 $-1 136.9081382840556955 9.190874870203714408 0 0 0 -1 -4.499999999999992895 0 0 1 I I #
point $-1 -1 $-1 143.3846279045989718 21.56776988865286881 0 #
ATTRIB_CUSTOM-attrib $-1 -1 $-1 $-1 $506 @17 sketch_attrib_def 1 1 3 @22 181 0 4294967295 0 1 1 #
point $-1 -1 $-1 135.4316486635123624 -3.186020148245445771 -4.75 #
vertex $-1 -1 $-1 $519 $528 #
ellipse-curve $-1 -1 $-1 132.9316486635123624 -3.186020148245445327 0 0 0 -1 -2.5 0 0 1 I I #
point $-1 -1 $-1 141.4081382840556955 9.190874870203714408 0 #
point $-1 -1 $-1 135.4316486635123624 -3.186020148245445771 0 #
End-of-ACIS-data 